<svg xmlns="http://www.w3.org/2000/svg" width="1920" height="1079.999" viewBox="0 0 1920 1079.999">
  <path id="banner_layer" d="M1919.5,1079.5H.5V.5h1919v1079ZM667.782,697.195h0L629.453,808.1l-33.3,96.4H799.259l38.329-110.9,33.3-96.4H667.782ZM596,176h0l514.694,728.493h214.027L810.009,176H596Zm579.067,0c-35.642,0-74.881,29.611-87.469,66.008L1072.076,286.9l-10.5,30.393-22.807,66.01h138.444c35.661,0,74.9-29.612,87.47-66.01l15.524-44.893,10.493-30.394L1313.511,176H1175.067Z" transform="translate(-0.001 -0.001)" fill="#fff" stroke="#707070" stroke-width="1"/>
</svg>
