<svg xmlns="http://www.w3.org/2000/svg" xmlns:xlink="http://www.w3.org/1999/xlink" width="147.5" height="42.944" viewBox="0 0 147.5 42.944">
  <defs>
    <clipPath id="clip-path">
      <path id="Path_69959" data-name="Path 69959" d="M209.972,14.656V39.51a3.065,3.065,0,1,0,6.129,0V14.656a3.065,3.065,0,0,0-6.129,0m.8-13.561A3.476,3.476,0,0,0,209.7,3.6a3.512,3.512,0,0,0,1.077,2.543,3.389,3.389,0,0,0,2.708,1.088,3.733,3.733,0,0,0,2.511-1.211,3.472,3.472,0,0,0,.944-2.42,3.426,3.426,0,0,0-1.078-2.559A3.6,3.6,0,0,0,213.265,0a3.4,3.4,0,0,0-2.493,1.095" transform="translate(-209.695 0)" fill="#fff"/>
    </clipPath>
    <clipPath id="clip-path-2">
      <path id="Path_69960" data-name="Path 69960" d="M230.122,19.587v.606h5.388V33.934a27.2,27.2,0,0,0,.388,5.708,8.822,8.822,0,0,0,.96,2.425,6.971,6.971,0,0,0,1.448,1.667,10.217,10.217,0,0,0,7.005,2.459,15.6,15.6,0,0,0,6.173-1.229,2.588,2.588,0,0,0,1.539-2.393h0a2.617,2.617,0,0,0-3.415-2.5,11.374,11.374,0,0,1-3.556.6q-4.413,0-4.411-5.312V20.193h7.039a2.762,2.762,0,0,0,0-5.523H241.64v-6.4Z" transform="translate(-230.122 -8.272)" fill="#fff"/>
    </clipPath>
    <clipPath id="clip-path-3">
      <path id="Path_69961" data-name="Path 69961" d="M139.614,20.832a13.86,13.86,0,0,0-3.364.83,5.083,5.083,0,0,0-1.747,1.485c-.531.622-.342-1.631-.342-1.631h-5.73V48.6a3.024,3.024,0,0,0,3.024,3.024h0A3.025,3.025,0,0,0,134.48,48.6V33.746a10.11,10.11,0,0,1,.5-3.32,7.756,7.756,0,0,1,1.326-2.446,5.65,5.65,0,0,1,1.91-1.514,5.124,5.124,0,0,1,2.255-.524q2.758,0,3.794,1.6A8.833,8.833,0,0,1,145.3,32.29V48.6a3.024,3.024,0,1,0,6.048,0V33.979a10.768,10.768,0,0,1,1.38-5.94,4.939,4.939,0,0,1,4.457-2.1,5.533,5.533,0,0,1,2.759.582,3.663,3.663,0,0,1,1.512,1.66,7.25,7.25,0,0,1,.611,2.563q.1,1.485.106,3.29V48.6a3.024,3.024,0,1,0,6.048,0V30.834q0-5.473-2.414-7.8a9.342,9.342,0,0,0-6.764-2.329,15.914,15.914,0,0,0-5.8,1.31,21.58,21.58,0,0,0-3.364,2.009,10.811,10.811,0,0,0-2.479-2.1,11.412,11.412,0,0,0-4.643-1.223c-.365,0-.685,0-1,0a15.393,15.393,0,0,0-2.143.136" transform="translate(-128.431 -20.696)" fill="#fff"/>
    </clipPath>
    <clipPath id="clip-path-4">
      <path id="Path_69962" data-name="Path 69962" d="M21.684,23.627l-.028,0C6.628,25.762,3.8,45.875,17.71,52c9.982,4.307,17.547-3.458,22.979-10.951q.524-.715,1.063-1.422l-6.783-1.144L33.185,40.82c-3.094,3.7-6.529,6.667-10.744,6.219-6.842-.726-10.116-9.318-5.5-14.426a8.366,8.366,0,0,1,10.518-1.834,2.955,2.955,0,0,0,4.166-1.264c1.2-2.173-1.579-4.293-3.016-4.958a11.965,11.965,0,0,0-5.1-1.018c-.609,0-1.218.033-1.824.089" transform="translate(-8.682 -23.538)" fill="#fff"/>
    </clipPath>
    <clipPath id="clip-path-5">
      <path id="Path_69963" data-name="Path 69963" d="M72.321,24.269l4.48,3.186a.929.929,0,0,0,.819.137,10.456,10.456,0,0,1,3.228-.48,9.891,9.891,0,0,1,7.16,2.749A9.239,9.239,0,0,1,90.852,36.8a9.309,9.309,0,0,1-2.732,6.919,9.558,9.558,0,0,1-7.015,2.7,9.719,9.719,0,0,1-7.064-2.669,8.75,8.75,0,0,1-2.486-4.428l-4.046,5.385a14.781,14.781,0,0,0,2.345,2.878A15.34,15.34,0,0,0,80.912,51.85a15.987,15.987,0,0,0,11.346-4.2,13.835,13.835,0,0,0,4.506-10.563A14.567,14.567,0,0,0,92.322,26.2,15.338,15.338,0,0,0,81.168,21.87a16.177,16.177,0,0,0-8.846,2.4" transform="translate(-67.508 -21.87)" fill="#fff"/>
    </clipPath>
    <clipPath id="clip-path-6">
      <path id="Path_69964" data-name="Path 69964" d="M60.275,37.126l-2.638,4.483,4.349.81a3.611,3.611,0,0,0,3.808-1.779l2.394-4.251-4.452-.829a3.32,3.32,0,0,0-3.461,1.565" transform="translate(-57.637 -35.504)" fill="#fff"/>
    </clipPath>
  </defs>
  <g id="comit_logo" transform="translate(-8.682)">
    <g id="Group_142507" data-name="Group 142507" transform="translate(121.787 0)">
      <g id="Group_142506" data-name="Group 142506" clip-path="url(#clip-path)">
        <rect id="Rectangle_2581" data-name="Rectangle 2581" width="7.241" height="42.575" transform="translate(0 0)" fill="#fff"/>
      </g>
    </g>
    <g id="Group_142509" data-name="Group 142509" transform="translate(133.281 4.654)">
      <g id="Group_142508" data-name="Group 142508" clip-path="url(#clip-path-2)">
        <rect id="Rectangle_2582" data-name="Rectangle 2582" width="22.9" height="37.921" transform="translate(0 0)" fill="#fff"/>
      </g>
    </g>
    <g id="Group_142511" data-name="Group 142511" transform="translate(76.062 11.645)">
      <g id="Group_142510" data-name="Group 142510" clip-path="url(#clip-path-3)">
        <rect id="Rectangle_2583" data-name="Rectangle 2583" width="39.793" height="30.93" fill="#fff"/>
      </g>
    </g>
    <g id="Group_142513" data-name="Group 142513" transform="translate(8.682 13.244)">
      <g id="Group_142512" data-name="Group 142512" clip-path="url(#clip-path-4)">
        <rect id="Rectangle_2584" data-name="Rectangle 2584" width="37.954" height="32.773" transform="translate(-4.885 0)" fill="#fff"/>
      </g>
    </g>
    <g id="Group_142515" data-name="Group 142515" transform="translate(41.782 12.306)">
      <g id="Group_142514" data-name="Group 142514" clip-path="url(#clip-path-5)">
        <rect id="Rectangle_2585" data-name="Rectangle 2585" width="29.257" height="29.98" transform="translate(0 0)" fill="#fff"/>
      </g>
    </g>
    <g id="Group_142517" data-name="Group 142517" transform="translate(36.228 19.977)">
      <g id="Group_142516" data-name="Group 142516" clip-path="url(#clip-path-6)">
        <rect id="Rectangle_2586" data-name="Rectangle 2586" width="10.551" height="7.197" transform="translate(0 0)" fill="#fff"/>
      </g>
    </g>
  </g>
</svg>
