<svg xmlns="http://www.w3.org/2000/svg" width="27" height="27" viewBox="0 0 27 27">
  <path id="linkedin" d="M25.071,2.25H1.923A1.937,1.937,0,0,0,0,4.2V27.3A1.937,1.937,0,0,0,1.923,29.25H25.071A1.942,1.942,0,0,0,27,27.3V4.2A1.942,1.942,0,0,0,25.071,2.25ZM8.16,25.393h-4V12.508H8.166V25.393Zm-2-14.645a2.32,2.32,0,1,1,2.32-2.32,2.321,2.321,0,0,1-2.32,2.32Zm17,14.645h-4V19.125c0-1.495-.03-3.417-2.079-3.417-2.085,0-2.4,1.627-2.4,3.309v6.376h-4V12.508h3.839v1.76h.054a4.215,4.215,0,0,1,3.791-2.079c4.05,0,4.8,2.67,4.8,6.141Z" transform="translate(0 -2.25)" fill="#a8ca9a"/>
</svg>
