<svg xmlns="http://www.w3.org/2000/svg" xmlns:xlink="http://www.w3.org/1999/xlink" width="175.866" height="32.678" viewBox="0 0 175.866 32.678">
  <defs>
    <clipPath id="clip-path">
      <rect id="Rectangle_1" data-name="Rectangle 1" width="175.866" height="32.678" fill="#3f3075"/>
    </clipPath>
  </defs>
  <g id="logo" transform="translate(0 0)">
    <g id="Group_1" data-name="Group 1" transform="translate(0 0)" clip-path="url(#clip-path)">
      <path id="Path_1" data-name="Path 1" d="M7.9,19.13c.5,3.826,3.826,6.586,9.22,6.586,2.823,0,6.523-1.067,8.28-2.886L30.3,27.66C27.033,31.048,21.7,32.678,17,32.678c-10.664,0-17-6.586-17-16.5C0,6.774,6.4,0,16.434,0c10.35,0,16.81,6.4,15.618,19.13Zm16.809-6.335c-.5-4.014-3.637-6.021-8.029-6.021-4.139,0-7.526,2.007-8.656,6.021Z" transform="translate(0 0)" fill="#3f3075"/>
      <path id="Path_2" data-name="Path 2" d="M71.085,32.678V15.85c0-4.892-2.572-8.609-7.464-8.609-4.7,0-7.9,4.109-7.9,9V32.678h-7.59V.457h6.836l.5,4.37C58.6,1.631,61.74,0,65.629,0c7.276,0,13.11,5.675,13.11,15.785V32.678Z" transform="translate(-10.37 0)" fill="#3f3075"/>
      <path id="Path_3" data-name="Path 3" d="M124.387,0,111.216,32.678h-8.279L89.7,0h8.343l4.265,10.739,4.767,13.7,4.7-13.572L116.045,0Z" transform="translate(-19.328 0)" fill="#3f3075"/>
      <path id="Path_4" data-name="Path 4" d="M144.773,19.13c.5,3.826,3.826,6.586,9.221,6.586,2.823,0,6.523-1.067,8.279-2.886l4.892,4.83c-3.261,3.388-8.593,5.018-13.3,5.018-10.663,0-17-6.586-17-16.5C136.87,6.774,143.268,0,153.3,0c10.35,0,16.81,6.4,15.618,19.13Zm16.81-6.335c-.5-4.014-3.639-6.021-8.029-6.021-4.14,0-7.527,2.007-8.656,6.021Z" transform="translate(-29.491 0)" fill="#3f3075"/>
      <path id="Path_5" data-name="Path 5" d="M215.265,32.755h-9.52L182.853.355h9.519Z" transform="translate(-39.399 -0.077)" fill="#3f3075"/>
      <path id="Path_6" data-name="Path 6" d="M217.3.355h-3.282a4.5,4.5,0,0,0-3.89,2.936l-.69,2-.467,1.352-1.014,2.936h6.158A4.494,4.494,0,0,0,218,6.639l.69-2,.467-1.352L220.175.355Z" transform="translate(-44.808 -0.077)" fill="#3f3075"/>
      <path id="Path_7" data-name="Path 7" d="M190.88,29.9h-4.833l-1.7,4.932-1.481,4.287h9.034l1.7-4.932,1.481-4.287Z" transform="translate(-39.401 -6.443)" fill="#3f3075"/>
    </g>
  </g>
</svg>
