<svg xmlns="http://www.w3.org/2000/svg" xmlns:xlink="http://www.w3.org/1999/xlink" width="94.375" height="34.317" viewBox="0 0 94.375 34.317">
  <defs>
    <clipPath id="clip-path">
      <rect id="Rectangle_627" data-name="Rectangle 627" width="94.375" height="34.318" fill="#fff"/>
    </clipPath>
  </defs>
  <g id="ting" clip-path="url(#clip-path)">
    <g id="Group_577" data-name="Group 577">
      <path id="Path_29723" data-name="Path 29723" d="M103.106,43.582a.106.106,0,0,0,.072.042.117.117,0,0,1,.072.041.228.228,0,0,1,.082.1l.021.021c0,.014.007.021.02.021.069.026.135.055.2.081a1.854,1.854,0,0,1,.2.1l.041.02a5.16,5.16,0,0,1,.547-.01,1.233,1.233,0,0,0,.567-.135.826.826,0,0,0,.413-.33A3.183,3.183,0,0,0,105.6,43a1.285,1.285,0,0,0,.112-.5c.008-.178.011-.364.011-.557V41.5a4,4,0,0,0-.021-.413c0-.027.008-.113.021-.258a.944.944,0,0,1,.062-.3c.1-.248.233-.382.413-.4s.3-.03.371-.03a.649.649,0,0,1,.268.073.319.319,0,0,1,.124.134c.026,0,.042.028.042.083a1.119,1.119,0,0,0,.092.258.73.73,0,0,1,.073.257,3.284,3.284,0,0,1,0,.506c-.014.158-.02.312-.02.464v.124a1.075,1.075,0,0,0-.042.309,1.16,1.16,0,0,1-.042.311.57.57,0,0,1-.01.081.636.636,0,0,0-.01.083,2.427,2.427,0,0,1-.154.836,2.734,2.734,0,0,1-.32.65,2.783,2.783,0,0,1-.453.5,2.85,2.85,0,0,1-.558.33,1.456,1.456,0,0,1-.278.125c-.09.026-.189.054-.3.081a3.358,3.358,0,0,1-.826.1,4.441,4.441,0,0,1-.763-.062.411.411,0,0,1-.187-.042,2.554,2.554,0,0,0-.278-.1c-.089-.028-.2-.062-.32-.1h-.02a.53.53,0,0,0-.062-.1c-.029,0-.036.013-.021.041s.007.035-.021.021a.546.546,0,0,1-.144-.1.512.512,0,0,0-.166-.1.058.058,0,0,0-.041-.019.559.559,0,0,1-.114-.1c-.034-.042-.079-.089-.133-.145a2.144,2.144,0,0,1-.454-.8,4.229,4.229,0,0,1-.207-.99q-.061-.782-.052-1.691t.011-2.042c0-.275,0-.651.01-1.126s0-.925-.032-1.351a.269.269,0,0,0-.2-.227,2.48,2.48,0,0,1-.258-.082h-.083a1.635,1.635,0,0,0-.278.02l-.216.041h-.083a.819.819,0,0,1-.537-.247.778.778,0,0,1-.205-.475.916.916,0,0,1,.164-.486.638.638,0,0,1,.537-.277h.867q.351-.02.31-.474V32.978c0-.234,0-.416-.011-.546a1.43,1.43,0,0,1,.032-.382.616.616,0,0,1,.515-.495.485.485,0,0,1,.217-.042.639.639,0,0,1,.2.021.233.233,0,0,1,.124.083.236.236,0,0,0,.125.082l.04.042a.539.539,0,0,0,.124.207.518.518,0,0,1,.124.247.164.164,0,0,0,.021.083.182.182,0,0,1,.021.083c.027.149.02.243-.021.277s-.035.1.021.2a.16.16,0,0,0,.009.051.2.2,0,0,1,.011.053,1.568,1.568,0,0,1,.01.3c-.007.09-.01.189-.01.3v.279c0,.117,0,.236.01.361s.011.231.011.321v.153q.06.186.371.187h2.309a.64.64,0,0,1,.516.165.8.8,0,0,1,.206.537.654.654,0,0,1-.206.587.936.936,0,0,1-.516.2h-2.413c-.179,0-.268.138-.268.413q-.043.66-.032,1.216c.007.372,0,.764-.03,1.177a.352.352,0,0,0,.011.1.346.346,0,0,0,.03.083V41.7a4.064,4.064,0,0,0,.051.909,3.15,3.15,0,0,0,.238.722v.04a.057.057,0,0,0,.021.042.171.171,0,0,0,.019.1c0,.042.015.062.043.062M99.6,35.537c0-.042-.008-.062-.021-.062,0,.041.007.062.021.062m.186-.33v-.062a.036.036,0,0,1-.021.031c-.014.007-.007.018.021.031m0,.7c0,.055.007.061.021.02s.006-.048-.021-.02m.124-.144c.054.055.076.059.062.01s-.034-.051-.062-.01m.1-.516c.027.014.042,0,.042-.032s-.006-.044-.021-.031-.034.048-.021.062m.042-.125a.052.052,0,0,0,.052-.03.387.387,0,0,1,.031-.072.061.061,0,0,1-.021-.042c0-.013-.013-.021-.041-.021.028.042.028.072,0,.093a.054.054,0,0,0-.021.073m.207.743v-.061a.035.035,0,0,1-.021.031c-.014.007-.007.017.021.031m.082.042c0-.028.014-.035.042-.021a.181.181,0,0,1,.031-.227.155.155,0,0,0,.031-.205c.055-.029.07-.063.042-.1a.32.32,0,0,0-.125.258c-.013.13-.021.231-.021.3m.187-.639c-.042.013-.052.028-.032.041s.032,0,.032-.041m0,.6c-.028.029-.028.042,0,.042s.028-.013,0-.042m0-.805.083.042a.044.044,0,0,1,.01-.063.069.069,0,0,0,.031-.061.306.306,0,0,1-.083-.062.215.215,0,0,1-.01.083l-.031.061m.1.413-.02-.019c-.029.013-.035.027-.021.04s.027.008.04-.021m.083-.413c-.027,0-.041-.01-.041-.031s-.007-.016-.021.01c.013,0,.024.011.031.032s.016.018.031-.011m.97-.226c-.013.055-.007.068.021.041s.02-.041-.021-.041m.124,1.2c-.028.013-.042.013-.042,0s-.013-.022-.041-.022c-.013.041-.007.059.021.052a.147.147,0,0,0,.062-.03m-.021-4.25c0-.042-.007-.062-.021-.062,0,.041.007.062.021.062m.083.083c.04,0,.061-.028.061-.083h-.061Zm0,6.415c.068,0,.1-.007.1-.02-.028-.014-.034-.031-.021-.052a.129.129,0,0,0,.021-.072c-.014,0-.021,0-.021-.011s-.007-.01-.02-.01c.027.04.027.069,0,.082a.135.135,0,0,0-.061.082m.1,6.128c0-.028-.008-.044-.021-.052a.153.153,0,0,1-.041-.031c0,.055.021.083.062.083m.061-9.45c0-.027,0-.044.011-.052a.081.081,0,0,0,.01-.051h-.083c0,.07.021.1.061.1m-.061,3.033h.041c0-.042-.013-.062-.041-.062Zm.124-6.108a.073.073,0,0,0-.083-.082.073.073,0,0,0,.083.082m-.041,5.84h.041c-.027-.027-.041-.027-.041,0m.041-.165c.013-.041.028-.045.041-.011s.034.039.062.011a.092.092,0,0,0-.031-.082c-.021-.013-.045-.028-.073-.042a.109.109,0,0,1-.02.052c-.014.02-.007.046.02.073m.021-2.1c0,.068.014.113.041.132a.76.76,0,0,1,.082.073.161.161,0,0,1,.052-.062.068.068,0,0,0,.031-.061c-.041.014-.076,0-.1-.052s-.062-.059-.1-.03m.123-3.549h-.082c0,.055.013.072.042.051a.057.057,0,0,1,.083.01c.013.027.006.038-.021.031s-.034,0-.021.031.048.028.062,0a.131.131,0,0,1,.062-.061c-.041,0-.048-.027-.02-.084h-.062c0-.013.013-.034.041-.061a.048.048,0,0,1-.052-.031c-.008-.021-.024-.024-.052-.01s-.01.031.01.052a.057.057,0,0,1,.01.073m-.062,1.67c.027.029.052.052.073.073l.073.072a.223.223,0,0,1-.041-.176.211.211,0,0,0-.021-.154.159.159,0,0,1-.051.083c-.021.014-.031.048-.031.1m.021,4.807a.474.474,0,0,1-.011.093.061.061,0,0,0,.031.074.18.18,0,0,0,.073-.094.1.1,0,0,0-.01-.112.058.058,0,0,1-.083.04m.061-2.434a.106.106,0,0,0,.021-.112.142.142,0,0,0-.062-.093.322.322,0,0,1,.01.133.057.057,0,0,0,.031.072m.021,1.116a.142.142,0,0,1,.01-.063c.006-.013,0-.021-.032-.021,0,.056.006.085.021.085M102.3,35c.042-.014.062-.011.062.01s.014.03.041.03a.066.066,0,0,0-.041-.061A.041.041,0,0,0,102.3,35m0,.474c.014,0,.021.021.021.062a.256.256,0,0,0,.072-.052c.021-.021.018-.045-.01-.072.013.042,0,.055-.031.042s-.052-.008-.052.019m.083-2.929c0-.028-.007-.045-.021-.052a.11.11,0,0,1-.041-.052.169.169,0,0,0,.062.1m.02,2.042a.169.169,0,0,1-.02-.072.07.07,0,0,0-.021-.051.232.232,0,0,1-.01.072c-.007.021.01.039.051.051m.021,10.358a.118.118,0,0,0-.04-.083c-.028.028-.034.053-.021.073a.043.043,0,0,0,.061.011m-.04-11.657c0-.027,0-.038.01-.031s.018,0,.031-.011c-.027,0-.04,0-.04-.01s-.007-.01-.021-.01a.078.078,0,0,0,.021.062m.02-1.238.021.021.021-.021c.029-.055.014-.069-.041-.042l-.02.021Zm0,4.477c.028,0,.038-.01.031-.031a.047.047,0,0,1,.01-.051c-.027,0-.041.027-.041.082m.1-1.732a.144.144,0,0,1-.021.122c.028.028.048.028.061,0s.042-.033.083-.02a.109.109,0,0,1,0-.093c.014-.034.007-.059-.021-.072-.013.027-.028.04-.041.04a.145.145,0,0,0-.062.022m-.021,9.923c.013.028.021.023.021-.009s-.008-.032-.021.009m.021-8.458c.013.027.024.027.031,0s0-.028-.031,0m.021-.063a.086.086,0,0,0,.062-.021.242.242,0,0,1,.062-.041c-.014-.07-.014-.109,0-.124s.013-.047,0-.1a.971.971,0,0,1-.093.114.191.191,0,0,0-.031.174m.041-1.774c-.028,0-.041.007-.041.021.027,0,.041-.007.041-.021m-.041.722h.062c0-.054-.021-.075-.062-.061Zm0,.207c.027.028.037.028.031,0s-.018-.026-.031,0m.019-.661a.123.123,0,0,1,.083.021c-.014-.027-.01-.044.01-.052s.018-.017-.01-.031c-.014.028-.028.031-.041.01s-.028-.031-.042-.031Zm.062-.391a.033.033,0,0,0-.02-.031c-.015-.008-.021,0-.021.031.013-.014.021-.014.021,0s.007.013.02,0m.021.722q0-.021.021,0a.037.037,0,0,0-.042-.042c0,.028.007.042.021.042m0,10.026c.028,0,.044-.007.052-.021a.1.1,0,0,1,.051-.041c-.027,0-.041,0-.041-.01s-.016-.01-.041-.01a.116.116,0,0,1-.021.083m.021-9.18h.062a.064.064,0,0,1,0-.072c.013-.021,0-.039-.042-.052a.171.171,0,0,1-.01.062.142.142,0,0,0-.01.061m.143-.929c.056,0,.083-.007.083-.021-.055,0-.083.008-.083.021m.186,1.258c.014.028.023.028.031,0s0-.027-.031,0m.309,8.975a.116.116,0,0,1,.073.021.071.071,0,0,0,.073,0,.167.167,0,0,0,.031-.135.5.5,0,0,0-.031-.135c0,.07-.025.112-.073.124s-.073.055-.073.125m.578.021a.092.092,0,0,0,.01.092c.022.034.045.037.073.01-.028-.055-.018-.072.031-.051a.084.084,0,0,0,.112-.03c-.027,0-.037-.008-.031-.021s0-.021-.01-.021a.452.452,0,0,0-.093.01.475.475,0,0,1-.093.011m.186-9.595c-.014.07.013.1.082.1-.014-.027.015-.041.083-.041a.193.193,0,0,1-.051-.073.1.1,0,0,0-.052-.051c.015.04-.006.061-.061.061m.04-.185c-.013.042,0,.062.032.062s.044-.019.031-.062c-.027.013-.042.013-.042,0s-.006-.013-.021,0m.042-.206c.069.014.1.049.1.1a.1.1,0,0,0,.083.1q.081-.082,0-.134a.657.657,0,0,1-.125-.093.137.137,0,0,1,.011-.052c.007-.022,0-.024-.032-.01.014.028.01.041-.01.041s-.031.014-.031.042m.413.99c.042-.042.035-.062-.021-.062,0,.041.007.062.021.062m0,8.418c.028-.028.021-.056-.021-.082,0,.054.007.082.021.082m.021.578.083.041a.169.169,0,0,1,.032-.073c.02-.035.01-.059-.032-.072.013.042.007.062-.02.062a.066.066,0,0,0-.062.042m.166-.372a.124.124,0,0,0-.021-.083c0,.042-.02.055-.062.042s-.061-.013-.061,0a.2.2,0,0,0,.144.042m.082-.206c.043,0,.062-.014.062-.042h-.041c0,.014,0,.021-.011.021s-.01.006-.01.021m.1-9.058c.028,0,.041-.006.041-.02s.015-.013.042,0a.08.08,0,0,0-.042-.082c0,.027-.007.044-.02.051s-.021.025-.021.051m.247.434a.764.764,0,0,0,.042-.1.092.092,0,0,0-.021-.1c-.014.026-.031.061-.05.1a.072.072,0,0,0,.029.1m.228,8.21c.013,0,.024-.014.031-.04s0-.042-.031-.042c.013.028.01.047-.01.062s-.018.02.01.02m.186-.37a.088.088,0,0,1,0,.082.04.04,0,0,0,.021.062c.013-.027.023-.031.031-.011s.024.025.052.011a.155.155,0,0,1,0-.155c.027-.048-.008-.044-.1.011m.082.577a.245.245,0,0,0,.1-.031c.042-.021.049-.045.021-.071-.027.04-.055.051-.083.03a.205.205,0,0,1-.061-.072c-.014.027-.014.048,0,.062a.122.122,0,0,1,.02.083m.021-1.177a.219.219,0,0,0,.113.114.267.267,0,0,1,.114.093c-.055.11-.034.179.062.206a.493.493,0,0,1,.268-.01.575.575,0,0,0,.289-.009.171.171,0,0,1-.052-.094.356.356,0,0,0-.052-.114,1.715,1.715,0,0,1-.34.01c-.131-.007-.183-.064-.155-.175-.069.014-.1,0-.1-.052s-.028-.072-.082-.072c0,.028-.01.045-.031.052a.049.049,0,0,0-.03.051m.123-1.856c.013,0,.035.014.062.042a.17.17,0,0,0,.021-.1c-.055.028-.083.048-.083.062m.145,1.774c.014-.028,0-.045-.031-.051s-.044,0-.031.03c.013,0,.021,0,.021.012s.013.009.042.009m.123.227c.055,0,.083-.012.083-.04-.028-.042-.055-.028-.083.04" transform="translate(-57.67 -18.3)" fill="#fff"/>
      <path id="Path_29724" data-name="Path 29724" d="M124.191,35.715c-.027.027-.02.048.021.062s.062.035.062.062c0,.139,0,.317-.01.537s-.014.45-.021.691-.01.475-.01.7v.587q-.021,1.052-.022,2.094t.022,1.97a1.937,1.937,0,0,0,.01.454c.021.152.044.289.072.413a.069.069,0,0,1,0,.072.394.394,0,0,0-.041.094l.021.019a.019.019,0,0,0,.021.021.507.507,0,0,1,.124.082,1.659,1.659,0,0,1,.113.124.536.536,0,0,0,.114.1l.042.021a.576.576,0,0,0,.329-.052,1.421,1.421,0,0,1,.393-.113.079.079,0,0,1,.082.051.122.122,0,0,0,.062.071.051.051,0,0,0,0-.082c-.029-.028-.021-.048.02-.061a1.347,1.347,0,0,1,.4.061.569.569,0,0,1,.3.206.754.754,0,0,1,.1.538.91.91,0,0,1-.176.308A.722.722,0,0,1,125.7,45a.051.051,0,0,1-.082,0c-.3-.055-.592-.1-.868-.124s-.549-.054-.825-.083c-.028,0-.044.007-.052.021s-.025.021-.051.021a2.23,2.23,0,0,0-.578-.01c-.235.021-.434.038-.6.051-.124.014-.244.023-.359.031a3.236,3.236,0,0,0-.4.052c-.151.027-.323.047-.516.062a1.539,1.539,0,0,1-.517-.042.541.541,0,0,1-.361-.237.753.753,0,0,1-.091-.527.5.5,0,0,1,.091-.32.6.6,0,0,1,.208-.165.7.7,0,0,1,.226-.061c.076-.006.135-.01.176-.01.109,0,.237.006.382.02s.292.034.443.062a.487.487,0,0,0,.393-.082.87.87,0,0,0,.247-.517,2.622,2.622,0,0,0,.114-.722c.007-.261,0-.516-.01-.763V37.108a2.275,2.275,0,0,0-.021-.32c-.041-.206-.078-.368-.113-.484a1.124,1.124,0,0,0-.195-.362.508.508,0,0,0-.392-.081q-.289.019-.5.04h-.042a.662.662,0,0,1-.3.062,1.147,1.147,0,0,1-.32-.041c-.027-.055-.02-.083.022-.083a.105.105,0,0,1-.1.022.749.749,0,0,0-.1-.042.05.05,0,0,1-.031-.01.041.041,0,0,0-.031-.011.915.915,0,0,1-.114-.218.825.825,0,0,1-.052-.3,1.039,1.039,0,0,1,.062-.279.6.6,0,0,1,.124-.175.019.019,0,0,0,.021-.021l.248-.123.041-.021a1.928,1.928,0,0,1,.629-.062c.214.014.375.028.486.042a2.709,2.709,0,0,0,.33.062,2.969,2.969,0,0,0,.37.021c.179-.013.354-.031.527-.05s.32-.046.443-.074a.606.606,0,0,1,.382.093.89.89,0,0,1,.216.3c.013.083.028.187.042.31a1.436,1.436,0,0,1-.021.413c0,.015-.01.027-.031.041s-.032.007-.032-.02Zm-3.486,8.768c.027,0,.037-.01.031-.031a.094.094,0,0,1,.01-.073c-.027.014-.041.012-.041-.011s-.014-.016-.042.011c.055,0,.068.035.042.1m.062.185c.028,0,.042-.006.042-.02a.057.057,0,0,1,.021-.042h-.062Zm.289-.474c-.028-.041-.049-.055-.062-.041s.007.028.062.041m.082.537a.167.167,0,0,0,.1-.021.054.054,0,0,0-.1.021m.062-.495c.028.027.042.027.042,0s-.014-.028-.042,0m.125.143c0-.013,0-.019.01-.019s.01-.008.01-.021-.019,0-.019-.01-.008-.01-.021-.01c-.029.042-.021.061.021.061m.206,0c0,.014.006.014.021,0s0-.019.009-.019.01-.008.01-.021h-.041Zm.123-.206a.177.177,0,0,1-.021-.072c0-.021-.013-.038-.04-.052a.08.08,0,0,0-.021.093.058.058,0,0,0,.083.031m-.021.082c.015.029.024.025.032-.009s0-.031-.032.009m1.507-13.038a1.089,1.089,0,0,1,.619.165,1.476,1.476,0,0,1,.413.413.911.911,0,0,1,.082.3,3.31,3.31,0,0,1,.021.381.309.309,0,0,1-.01.062.3.3,0,0,0-.011.062c-.027.069-.048.122-.062.165s-.034.1-.062.165a.142.142,0,0,0-.031.061.124.124,0,0,1-.031.062,1.123,1.123,0,0,1-.721.434,1.19,1.19,0,0,1-.413.01,1.017,1.017,0,0,1-.516-.257,1.3,1.3,0,0,1-.31-.382,1.654,1.654,0,0,1-.123-.464,1.131,1.131,0,0,1,.093-.486,1.385,1.385,0,0,1,.279-.382,1.584,1.584,0,0,1,.329-.216,1,1,0,0,1,.455-.093M122.4,43.7a.127.127,0,0,1-.031.082.142.142,0,0,0-.031.084.2.2,0,0,0,.143.062.239.239,0,0,0,.041-.135.154.154,0,0,0-.041-.114c0,.029-.01.034-.03.021s-.039-.013-.052,0m-.021.661c.027-.015.041-.008.041.019s.007.042.021.042a.066.066,0,0,1,.062-.073c.041-.008.061-.039.061-.094a.162.162,0,0,1-.093.051.188.188,0,0,0-.092.054m0,.371a.134.134,0,0,1,.082.061.082.082,0,0,0,.083.042.073.073,0,0,0,.083-.083c-.069-.027-.145-.054-.227-.083a.043.043,0,0,1-.01.031.043.043,0,0,0-.011.031m.289-1.093c0-.028-.017-.046-.052-.052s-.051,0-.051.01a.059.059,0,0,1,.041.021.084.084,0,0,0,.062.022m.02.741c.028-.027.032-.047.01-.061a.152.152,0,0,1-.052-.063c-.041.042-.028.083.042.124m-.062-.927c0,.068.008.079.02.029s.008-.058-.02-.029m.042.6c.029-.027.052-.027.073,0s.037.028.051,0c-.028,0-.031-.01-.01-.031a.057.057,0,0,0,.01-.073.777.777,0,0,1-.1.042c-.042.013-.048.034-.02.062m.042-9.222c0-.042-.013-.062-.042-.062a.034.034,0,0,1,.01.041c-.007.014,0,.021.032.021m.061,8.211a.027.027,0,0,1,0-.042c.013-.013.006-.02-.021-.02,0,.042.007.062.021.062m.041.887c-.015-.042-.009-.07.01-.083s.018-.034-.01-.063a.055.055,0,0,0-.062.063.081.081,0,0,0,.062.083m.061.309c-.04-.042-.061-.034-.061.019-.028.029-.021.035.021.022s.055-.028.04-.041m.021.247a.083.083,0,0,1,.011-.052.04.04,0,0,0,.01-.031.059.059,0,0,0-.042-.021c-.027,0-.04.007-.04.021.027,0,.037.01.031.031s0,.038.03.052m-.04-4.105c.082,0,.123-.027.123-.083-.083-.013-.123.014-.123.083m.04,4.167h.042q0-.042-.042,0m.1-1.011a.072.072,0,0,1,.052-.021c.02,0,.024.021.01.061.083.028.124-.006.124-.1-.069.029-.107.025-.114-.01a.179.179,0,0,0-.05-.092.171.171,0,0,1-.01.124c-.021.055-.024.069-.011.041m0-2.311.083.041c0-.055.024-.068.073-.041s.079.014.093-.041c-.041.013-.062.006-.062-.021a.193.193,0,0,0-.021-.083c-.055,0-.09.018-.1.052a.256.256,0,0,1-.062.092m.062-6.065c0-.029.014-.042.042-.042a.037.037,0,0,0,.041-.041.067.067,0,0,0-.083.021c-.028.028-.028.047,0,.062m.1.226a.528.528,0,0,0,.165-.062.071.071,0,0,0-.094-.01.189.189,0,0,0-.072.072m.1,1.693a.141.141,0,0,0,.124-.062.143.143,0,0,0-.1-.041.167.167,0,0,1-.021.1m.083.371v-.042c-.014,0-.021,0-.021-.01s-.008-.01-.021-.01c0,.041.013.062.042.062m-.042,5.508c.028,0,.045,0,.051.012a.241.241,0,0,0,.052.029.214.214,0,0,1-.02-.092.076.076,0,0,0-.041-.073c.013.042.009.065-.011.073a.047.047,0,0,0-.031.051m.021-4.991a.1.1,0,0,1,.093.051.174.174,0,0,0,.092.072.3.3,0,0,0,.1-.166.279.279,0,0,0-.113-.063.424.424,0,0,1-.135-.06.133.133,0,0,1-.02.072.165.165,0,0,0-.021.094m.021,3.651c.026.014.041.028.041.042s.013.02.041.02a.162.162,0,0,0,0-.113.168.168,0,0,1-.021-.092c-.041,0-.061.006-.061.02.026.014.033.03.02.052a.128.128,0,0,0-.02.072m.02-6.313c.029,0,.041,0,.041.01s.015.01.042.01a.067.067,0,0,1-.021-.052c0-.021-.013-.031-.041-.031a.089.089,0,0,1-.021.062m0,5.88a.521.521,0,0,1,.156.031.128.128,0,0,1,.092.134.128.128,0,0,0,.1-.083.058.058,0,0,1-.031-.072.058.058,0,0,0-.031-.072.254.254,0,0,1-.186-.062.159.159,0,0,1-.052.062.143.143,0,0,0-.052.062m.062-3.59a.119.119,0,0,1-.01-.083c.006-.028,0-.035-.031-.021a.058.058,0,0,0-.011.062.049.049,0,0,0,.052.042m-.041,6.787c.027.029.047.042.062.042v-.062a.084.084,0,0,0-.062.019m.1-9.283c0-.028.007-.042.02-.042s.015-.013,0-.041c-.04,0-.061-.007-.061-.021,0,.083.013.117.041.1m-.02,2.352a.069.069,0,0,1,.062.031c.013.02.041.023.082.01a.2.2,0,0,1-.021-.094.2.2,0,0,0-.02-.092.133.133,0,0,1-.062.062.083.083,0,0,0-.04.083m.165,3.053c0-.055-.014-.076-.042-.062,0,.041.014.062.042.062m.041-2.847c-.015,0-.021-.01-.021-.031s-.014-.023-.042-.01a.07.07,0,0,0,.031.062c.021.015.031.007.031-.021m.124,2.909c-.028.015-.044.008-.052-.02s-.017-.027-.031,0c.014,0,.028.01.042.032s.028.017.041-.012m.042,3.693c.013,0,.02.008.02.022s.008.02.022.02a.26.26,0,0,1,.123-.061.184.184,0,0,1,.124,0,.584.584,0,0,1,.021-.156c.013-.047-.007-.079-.062-.092a.28.28,0,0,1-.113.145.443.443,0,0,0-.134.122m.247.083a.138.138,0,0,0,.093.01.073.073,0,0,1,.072.011c0,.109-.041.164-.124.164a.089.089,0,0,0-.071-.01c-.021.007-.039,0-.053-.031a.06.06,0,0,1,.01-.073c.021-.019.017-.037-.01-.05-.013.026-.055.026-.123,0a.161.161,0,0,0,.061.132q.063.053,0,.156a.283.283,0,0,0,.052.073c.02.02.044.017.071-.011-.041-.042-.062-.068-.062-.083a.252.252,0,0,1,.206-.073.146.146,0,0,0,.166-.091c-.014-.029-.031-.042-.052-.042s-.031-.014-.031-.042a.146.146,0,0,1,.083-.165c-.07.014-.127.028-.177.041a.2.2,0,0,0-.113.083M123.9,32.889c.042,0,.063-.006.063-.021a.089.089,0,0,0-.063.021m.021,4.105c0-.013.007-.02.021-.02v-.021H123.9c.029.028.035.041.021.041m0-1.485c.055.028.082.013.082-.042-.055,0-.082.014-.082.042m.042,5.364c.028-.054.028-.083,0-.083a.062.062,0,0,1-.021.042c-.013.013-.007.026.021.04m-.021,2.786c.083-.014.121,0,.114.051a.106.106,0,0,0,.051.114.088.088,0,0,1,.02-.062.078.078,0,0,0,.021-.062.114.114,0,0,0-.092-.061.116.116,0,0,1-.094-.063.122.122,0,0,0-.021.083m.1-8.191a.119.119,0,0,1,.082.021v-.062a.119.119,0,0,0-.082.042m.164,8.356a.047.047,0,0,0-.051.03c-.008.021-.024.025-.052.012.014.068.044.085.092.05a.272.272,0,0,0,.094-.092.171.171,0,0,1-.051-.094.383.383,0,0,0-.032-.091.285.285,0,0,1-.01.091.177.177,0,0,0,.01.094m.083.887c0-.028.01-.042.031-.042s.032-.013.032-.041c-.029-.013-.049-.013-.062,0s-.035.007-.061-.021c.026.07.047.1.061.1m.124.04c-.014,0-.02,0-.02-.009s-.015-.01-.041-.01c-.015.028-.008.044.021.051s.041,0,.041-.031m.1-.927c.028,0,.035.01.021.03a.043.043,0,0,1-.061.012c0,.027.007.04.02.04s.014.015,0,.042c.055-.014.086-.01.093.009a.206.206,0,0,0,.051.073.108.108,0,0,0,.021-.114.255.255,0,0,0-.062-.113c.014.029,0,.031-.031.011s-.051-.018-.051.01m.248.371c-.015-.013-.022-.048-.022-.1a.293.293,0,0,1-.092-.011c-.022-.006-.045,0-.073.031-.014.042,0,.065.031.072a.489.489,0,0,1,.094.031c-.028.028-.021.056.021.083a.453.453,0,0,0,.2-.042c.062-.026.073-.088.031-.185a.066.066,0,0,0,.062-.041.192.192,0,0,0-.135.073.258.258,0,0,1-.113.092m.041.33.186.062-.042-.083a.067.067,0,0,1,.021-.082.248.248,0,0,0-.073.052.254.254,0,0,1-.092.051m.062.206c.041.014.058.007.051-.021a.381.381,0,0,0-.03-.083c-.016.015-.021.049-.021.1m.577-.413c-.041,0-.062-.014-.062-.041a.036.036,0,0,0-.04-.041c.027.082-.007.121-.1.113a.163.163,0,0,0-.186.093c.054.014.09,0,.1-.032s.047-.044.1-.031a.112.112,0,0,0,.083.113.108.108,0,0,0,.123-.01.33.33,0,0,1-.062-.083c.029-.014.039-.027.032-.04s0-.021.031-.021a.092.092,0,0,0,.124.029c.055-.019.089.005.1.074,0-.014.013-.034.041-.063a.48.48,0,0,0-.145-.226q-.041.165-.145.165m.393.392a.339.339,0,0,1,.186.1.089.089,0,0,0-.063-.114.108.108,0,0,0-.123.011" transform="translate(-69.902 -18.129)" fill="#fff"/>
      <path id="Path_29725" data-name="Path 29725" d="M138.964,48.017c.013-.027,0-.038-.051-.031s-.059-.01-.031-.052c.344.042.564-.136.659-.535a3.557,3.557,0,0,0,.073-.382,2.576,2.576,0,0,0,.01-.526v-4q0-.474.02-.919a3.745,3.745,0,0,0-.082-.939c-.028-.068-.055-.14-.082-.217a.378.378,0,0,0-.124-.174.807.807,0,0,0-.319-.124,1.769,1.769,0,0,0-.321-.01c-.111.007-.226.018-.35.031a1.236,1.236,0,0,1-.393-.021,1.327,1.327,0,0,1-.411-.144q-.187-.1-.208-.475a.539.539,0,0,1,.145-.505,1.07,1.07,0,0,1,.433-.216,1.185,1.185,0,0,1,.371-.02c.1.014.262.034.5.061.1.015.19.032.278.052a.555.555,0,0,0,.279-.011c.027,0,.042,0,.042.011s.007.01.021.01l.413-.051.412-.052c.343-.055.564.028.66.249a.535.535,0,0,1,.083.257v.34c-.014.028-.039.034-.073.021s-.052-.007-.052.02a.328.328,0,0,1,.125.041v.124c.027.015.054,0,.082-.031s.055-.039.083-.01a.044.044,0,0,1-.01.061c-.021.014-.025.042-.01.083.027.015.052,0,.072-.031a.068.068,0,0,0-.01-.092c.028-.013.062,0,.1.04.013-.054.013-.072,0-.051s-.034.016-.062-.01a.406.406,0,0,0,.082-.125.846.846,0,0,1,.042-.145c.028-.026.045-.033.052-.021s.031.015.072,0c.014-.026.01-.038-.011-.031s-.025-.009-.01-.052a.043.043,0,0,1,.031.01.041.041,0,0,0,.031.011c-.027-.055,0-.1.082-.144a1.746,1.746,0,0,0,.187-.1,3.407,3.407,0,0,1,1.062-.557,6.583,6.583,0,0,1,.795-.185,4.51,4.51,0,0,1,1.217,0,4.141,4.141,0,0,1,1.279.392c.137.068.285.151.444.248a2.1,2.1,0,0,1,.4.309,1.2,1.2,0,0,0,.134.123.178.178,0,0,1,.052.061.055.055,0,0,0,.062.063.826.826,0,0,1,.205.247.018.018,0,0,0,.021.021l.022.02a.093.093,0,0,1,.019.063.037.037,0,0,0,.042.042l.021.019a1.233,1.233,0,0,0,.124.258,1.412,1.412,0,0,1,.124.258.121.121,0,0,1,.021.082.253.253,0,0,0,.03.134.506.506,0,0,1,.05.114,5.719,5.719,0,0,1,.146,1.31c0,.46-.007.932-.021,1.413v2.7q0,.29.01.548a3.413,3.413,0,0,0,.051.484,1.13,1.13,0,0,0,.072.227.584.584,0,0,0,.113.186.392.392,0,0,0,.26.145,1.652,1.652,0,0,0,.443-.021.038.038,0,0,1,.042.042.433.433,0,0,1-.155.186c-.075.055-.072.123.01.206.042-.014.052-.039.031-.073a.125.125,0,0,1-.01-.114.145.145,0,0,0,.062-.052c.015-.021.034-.017.062.011-.028-.138.019-.21.143-.217a1.54,1.54,0,0,0,.331-.051.085.085,0,0,0,.041-.011.1.1,0,0,1,.042-.009.6.6,0,0,1,.413.175.768.768,0,0,1,.185.3.686.686,0,0,1-.083.537,1.286,1.286,0,0,1-.3.257,1.193,1.193,0,0,1-.506.114,3.174,3.174,0,0,1-.6-.053,4.692,4.692,0,0,0-.618-.071,6.352,6.352,0,0,0-.764-.042c-.275,0-.53.008-.763.021-.153,0-.333.01-.547.031a2.254,2.254,0,0,0-.442.073c-.1.014-.187.023-.27.031a.39.39,0,0,1-.206-.031,1.689,1.689,0,0,1-.5-.186l-.021-.02a.086.086,0,0,0-.051-.051.049.049,0,0,1-.031-.053v-.02a.108.108,0,0,1-.092-.134.279.279,0,0,0-.031-.175.054.054,0,0,1-.021-.042q0-.391.174-.506a.927.927,0,0,1,.444-.133,1.342,1.342,0,0,1,.629.061.713.713,0,0,0,.506.021.535.535,0,0,0,.247-.288,1.46,1.46,0,0,0,.123-.507c.016-.184.021-.387.021-.608a.059.059,0,0,1,.021-.041.053.053,0,0,0,.02-.041.364.364,0,0,0,0-.176.589.589,0,0,1-.02-.154,1.357,1.357,0,0,0,.02-.237.755.755,0,0,0-.041-.239V42.88c0-.262,0-.5-.01-.723a2.559,2.559,0,0,0-.052-.494,3.847,3.847,0,0,0-.073-.382,2.237,2.237,0,0,0-.114-.3.061.061,0,0,1-.019-.04V40.9a.181.181,0,0,0-.062-.2.839.839,0,0,1-.144-.114.045.045,0,0,0-.011-.031c-.008-.006-.01-.023-.01-.051v-.083c-.027-.026-.051-.031-.072-.011s-.044.018-.072-.01a2.076,2.076,0,0,0-.608-.433,4.026,4.026,0,0,0-.836-.247,3.52,3.52,0,0,0-.867.021,4.182,4.182,0,0,0-.742.185,1.567,1.567,0,0,0-.516.278c-.138.117-.262.231-.371.341-.056.055-.11.106-.165.155a.337.337,0,0,0-.1.217.061.061,0,0,0-.02.04c-.028.014-.037.032-.031.051s0,.031-.031.031l-.021.022-.02.019a2,2,0,0,0-.124.362,1.561,1.561,0,0,1-.124.34v.083a.225.225,0,0,1,.021.1,8.675,8.675,0,0,0-.113,1.3q-.012.68-.011,1.34v1.435c0,.268,0,.516.011.742s.017.4.031.506c.028.082.059.186.093.309a.442.442,0,0,0,.176.268.377.377,0,0,0,.247.082,1.694,1.694,0,0,0,.31-.03c.11-.021.22-.044.329-.073a1.321,1.321,0,0,1,.311-.04q.6,0,.639.639c.028.248-.009.409-.113.485a2.229,2.229,0,0,1-.381.217.986.986,0,0,1-.341.031c-.144-.007-.307-.02-.486-.042s-.356-.044-.535-.071-.337-.049-.474-.063a8.239,8.239,0,0,0-1.238.01q-.558.052-1.218.134a.119.119,0,0,1-.083.021.319.319,0,0,0-.094-.021.2.2,0,0,0-.092.042,2.1,2.1,0,0,1-.258-.021,1.175,1.175,0,0,1-.3-.083.579.579,0,0,1-.247-.217.806.806,0,0,1-.1-.444.574.574,0,0,1,.2-.495.711.711,0,0,1,.486-.123,1.538,1.538,0,0,1,.391.072,1.042,1.042,0,0,0,.413.051.437.437,0,0,0-.083.166.13.13,0,0,0,.083-.061c.014-.029.055-.034.124-.021m-.784-8.685c0-.069-.013-.1-.041-.083s0,.054.041.083m.062-.125c.027.028.041.028.041,0s-.014-.028-.041,0m.433.145q-.062-.039-.052,0c.006.028.024.028.052,0m.351,8.624c.013.029.021.024.021-.011s-.007-.031-.021.011m1.052-8.418c-.029,0-.042.007-.042.02.028,0,.042-.006.042-.02m-.021-.681c.013.055.023.062.031.021s0-.049-.031-.021m.124.146c.027,0,.055-.05.082-.146-.026,0-.04,0-.04-.01s-.015-.018-.042-.031a.221.221,0,0,1,0,.187m.042,6.023c.013.028.023.028.031,0s0-.027-.031,0m.1-4.271c.055,0,.09-.013.1-.042a.088.088,0,0,1-.072-.04c-.021-.028-.011-.049.03-.063-.028,0-.045-.009-.051-.031s-.025-.024-.051-.01v.093a.125.125,0,0,0,.041.093m.144,3.466c-.041,0-.061.006-.061.021.041.041.061.033.061-.021m-.041-5.385a.083.083,0,0,0,.082-.042.09.09,0,0,1-.072.011c-.021-.007-.024,0-.01.031m0,2c0,.07.007.078.02.032s.008-.06-.02-.032m.041,3.363a.065.065,0,0,0,.062-.042c.013-.027.007-.042-.021-.042Zm.083-4.828v.042c.026.013.042.006.042-.021s-.007-.034-.021-.021-.007.015-.021,0m.021,1.568c0,.014,0,.018-.01.011s-.01,0-.01.009a.018.018,0,0,0,.021-.02m.062-1.093c-.028,0-.042.007-.042.021.027,0,.042-.007.042-.021m-.042.433c.014.028.021.024.021-.009s-.007-.031-.021.009m.021,1.156a.564.564,0,0,1,.453.082.085.085,0,0,1,.041-.1.114.114,0,0,0,.083.042.1.1,0,0,1-.01-.114c.021-.034.038-.066.051-.093a.07.07,0,0,1-.062-.031c-.013-.021-.04-.025-.081-.01,0,.027.016.044.052.051s.044.031.03.072l-.019.021v.02c-.069-.026-.117-.034-.145-.02a.617.617,0,0,1-.145.041.361.361,0,0,1-.021-.083c0-.013-.028-.013-.083,0,0-.042-.027-.076-.083-.1a.188.188,0,0,1-.009.144.521.521,0,0,0-.051.083m.042,3.9a.037.037,0,0,0-.042-.042c0,.042.013.055.042.042m.019-3.672c0-.028-.013-.042-.04-.042a.036.036,0,0,0,.04.042m.042,3.857c.014-.04.007-.065-.021-.072s-.028-.032,0-.073c-.04,0-.061.008-.061.021a.06.06,0,0,1,.031.072c-.007.035.009.051.052.051m-.031-6.457c-.006,0-.011.007-.011.021h.021c0-.013,0-.021-.01-.021m.112.454c-.026,0-.041.007-.041.02.028,0,.041-.006.041-.02m0,.763c.07-.028.1-.017.1.031s.034.072.1.072l-.062-.061c-.015-.014-.008-.034.021-.062a.057.057,0,0,1-.021-.041.342.342,0,0,0-.1.021c-.042.013-.055.027-.042.041m0-.433h.062c0-.027-.021-.034-.062-.021Zm.021.99c-.013-.014-.021-.014-.021,0a.019.019,0,0,1,.021.021Zm-.021.372c0,.027.008.04.021.04s.021.016.021.042c.055-.026.089-.026.1,0V41.23a.059.059,0,0,1-.073-.011c-.02-.02-.044-.016-.073.011m.125-1.177v-.1c-.014.029-.029.032-.042.01s-.034-.024-.062-.01c.028.07.063.1.1.1m.1.908c.013-.027.009-.044-.01-.052a.106.106,0,0,1-.052-.03c0,.028.007.045.021.052a.168.168,0,0,1,.041.031m-.021-.887a.26.26,0,0,0,.124.123.062.062,0,0,0,.021-.042.161.161,0,0,1,.019-.061.192.192,0,0,0-.072-.052c-.02-.007-.038-.032-.052-.073.014.028.007.041-.02.041s-.036.022-.021.062m.062,1.795c.014.028.021.024.021-.01s-.007-.031-.021.01m.083-.33c-.028.027-.042.034-.042.02h.021a.019.019,0,0,0,.021-.02m.123-1.362a.073.073,0,0,1,.1-.031c.042.021.063,0,.063-.072a.108.108,0,0,1-.094,0,.106.106,0,0,0-.093,0c0,.028,0,.044-.011.051s0,.026.031.052m-.02.124c.028.028.041.028.041,0s-.013-.028-.041,0m.041.825c-.027,0-.041.007-.041.021.028,0,.041-.008.041-.021m.042-.083c-.028,0-.042.007-.042.022.028,0,.042-.008.042-.022m0,.062c.013.042.021.044.021.011s-.007-.039-.021-.011m.021-1.217c.028.014.041,0,.041-.031s.014-.051.042-.051c-.028.013-.042.005-.042-.021a.036.036,0,0,0-.041-.042c-.028.028-.028.052,0,.071s.028.045,0,.073m.083,1.177V40.92c-.042,0-.063.023-.063.073s.021.073.063.073m.062-.145a.037.037,0,0,1-.042-.042.037.037,0,0,0-.041-.042.051.051,0,0,0,.021.072c.026.021.048.025.062.012m.329-1.507c0,.056-.013.082-.041.082a.2.2,0,0,0-.083-.021.424.424,0,0,1-.123.083.133.133,0,0,1-.144,0,.086.086,0,0,1-.021.062.136.136,0,0,1,.123.062c.028.042.062.042.1,0-.028,0-.042-.01-.042-.031s.014-.037.042-.052a.118.118,0,0,0,.083.042h.125c.027-.013.027-.031,0-.052s-.029-.037,0-.051.043-.031.051-.011.024.031.052.031a.1.1,0,0,1,.072-.072c.034-.006.051-.038.051-.093-.014,0-.021,0-.021-.01s-.013-.011-.041-.011a.082.082,0,0,1-.082.041Zm-.082.33a.034.034,0,0,1-.011-.042c.008-.013-.01-.013-.052,0-.012.028-.012.042,0,.042s.014.013,0,.042a.108.108,0,0,0-.092,0c-.021.014-.045.008-.072-.021,0,.028,0,.042-.01.042s-.009.013-.009.04c.04-.013.061-.01.061.011s.028.039.082.052c0-.042.014-.062.041-.062-.027.042-.031.067-.009.073a.048.048,0,0,1,.03.051.139.139,0,0,1-.1.041.081.081,0,0,0,.021.062.082.082,0,0,1,.02.062.06.06,0,0,1-.072.031.057.057,0,0,0-.071.03c.026,0,.04.018.04.052s.014.051.042.051a2.387,2.387,0,0,1,.207-.289.518.518,0,0,1,.309-.165c-.028-.054-.028-.09,0-.1a.128.128,0,0,0,.061-.062l-.123.062c0-.028-.043-.042-.124-.042a.07.07,0,0,1-.042.093.085.085,0,0,1-.1-.01c-.013-.029,0-.042.031-.042s.037-.014.009-.042-.037-.023-.031.011,0,.044-.03.031m-.227.928c.069.015.106.007.113-.021s.031-.041.073-.041c.013-.123-.018-.161-.093-.114a.164.164,0,0,0-.093.175m.042-1.279a.318.318,0,0,1-.021.1.191.191,0,0,1,.083-.051.086.086,0,0,0,.061-.052c-.027-.013-.044-.017-.052-.01s0,0,.01-.031a.118.118,0,0,0-.082.041m.351-.248q.062.042.062,0t-.062,0m.02.125c.028-.013.042-.007.042.021a.037.037,0,0,0,.041.042c0-.015.011-.018.031-.011s.024,0,.01-.031a.093.093,0,0,1-.051-.052c-.006-.021-.023-.031-.051-.031,0,.028,0,.042-.01.042s-.01.007-.01.021m.1.371h.02c.029-.027.024-.042-.01-.042s-.044.014-.031.042Zm0-.413a.086.086,0,0,0,.072.01c.021-.005.038,0,.051.032-.013.028-.031.031-.051.01s-.023-.01-.01.031c.069,0,.1-.014.1-.042a.462.462,0,0,1-.062-.072.093.093,0,0,0-.083-.032.045.045,0,0,1-.01.032.041.041,0,0,0-.009.03m.081.31c.042-.013.066-.006.073.02a.049.049,0,0,0,.052.042c.014-.068.051-.088.113-.062a.186.186,0,0,1,.113.1.067.067,0,0,1,.02-.042c.014-.013.014-.034,0-.062l-.123-.082c-.04-.029-.082-.016-.123.04a.111.111,0,0,1-.01-.082c.006-.027,0-.034-.031-.021.028.055.021.09-.02.1s-.063.029-.063.042m.042.371c.028.027.052.03.073.01a.283.283,0,0,0,.052-.073.165.165,0,0,1-.072.021c-.021,0-.039.013-.052.042m.166-.083c.026.029.047.031.061.011s.02-.017.02.01c-.055,0-.081.021-.081.062a.2.2,0,0,1,.123.051c.04.035.075.032.1-.01-.083,0-.124-.027-.124-.082.041,0,.061-.007.061-.021s-.03-.038-.051-.031a.044.044,0,0,1-.051-.009.053.053,0,0,0,.011-.053c-.007-.02,0-.03.03-.03a.018.018,0,0,1,.021.021c0,.013.014.021.04.021a.919.919,0,0,1,.228-.145.165.165,0,0,0-.072-.021c-.021,0-.039-.013-.052-.042a.229.229,0,0,1-.186.124.19.19,0,0,1-.061.071.052.052,0,0,0-.021.073m.04-.928c.029.028.038.028.032,0s-.018-.028-.032,0m.083.247c.027-.027.031-.05.01-.071s-.01-.032.03-.032a.123.123,0,0,0,.052.032c.021.006.031-.011.031-.051A.123.123,0,0,1,142.5,39a.1.1,0,0,0-.093,0,.069.069,0,0,1,.021.083.04.04,0,0,0,.021.061m.1-.206h-.021c.041-.013.062,0,.062.041a.222.222,0,0,0,.073-.01.223.223,0,0,1,.072-.011.131.131,0,0,0-.093-.1.26.26,0,0,1-.114-.061c-.028.014-.023.028.01.041s.045.034.031.062h-.062a.087.087,0,0,0,.021.061c.014.013.021.008.021-.02m.062.6c0-.055-.007-.082-.021-.082a.048.048,0,0,0-.031.06c.008.029.024.035.051.021m-.042-.454v.1c.042,0,.059-.014.052-.042s.011-.02.053.021a.148.148,0,0,1-.022-.071c0-.021-.013-.032-.041-.032,0,.014-.013.021-.042.021m.083.412h.083c0,.029.006.042.021.042a.115.115,0,0,0-.021-.082.086.086,0,0,0-.083.04m.022-.433q.04.043.03,0c-.007-.027-.018-.027-.03,0m0,9.12a.081.081,0,0,0,.04.082.09.09,0,0,1,.021-.052c.014-.021.006-.038-.021-.051a.062.062,0,0,1-.04.021m.04-.083c.056-.028.062-.041.021-.041s-.049.013-.021.041m.042-9.326c-.015,0-.021.006-.021.021h.042c0-.015-.007-.021-.02-.021m0,.227a.111.111,0,0,0,.081.01.05.05,0,0,0,.042-.052c-.042,0-.062-.007-.062-.02-.028-.028-.035-.041-.021-.041,0,.028-.008.045-.021.051s-.02.023-.02.052m.02.619a.018.018,0,0,0-.02.021h.041a.019.019,0,0,0-.021-.021m.1-.784a.037.037,0,0,0-.042-.041c0,.028.014.041.042.041m0,9.2c-.028.027-.042.033-.042.02.027,0,.042-.007.042-.02m-.021-8.522c.069,0,.1.029.1.083a.112.112,0,0,0,.082-.022c.014-.026.014-.04,0-.04s-.013-.013,0-.042c-.027.029-.044.036-.051.021a.367.367,0,0,0-.052-.06c-.013.027-.031.038-.052.03s-.031,0-.031.031m0,.125c.013.028.025.028.031,0s0-.027-.031,0m.206,8.521h-.021c-.027,0-.041-.008-.041-.021s-.014-.02-.042-.02a.039.039,0,0,1-.011.031.048.048,0,0,0-.009.031.048.048,0,0,1,.052.031.091.091,0,0,0,.051.052c-.013-.055-.007-.082.021-.082a.068.068,0,0,0,.062-.042.086.086,0,0,1-.072-.041c-.021-.028-.039-.028-.052,0a.061.061,0,0,0,.041.021c.014,0,.021.014.021.042m-.1-9.243a.3.3,0,0,0,.124.041c.014-.027,0-.052-.042-.072s-.07-.01-.082.031m.124.659c0-.026.007-.04.021-.04s.021-.006.021-.021c-.028-.013-.049-.01-.062.01s-.007.039.021.051m0-.7a.044.044,0,0,1,.031.01c.008.008.024.011.052.011-.028-.056-.048-.083-.062-.083a.084.084,0,0,1-.021.062m.042.164c0-.026.005-.036.02-.03a.034.034,0,0,1,.021.03c.014-.055,0-.082-.041-.082.013.027.01.046-.011.052s-.017.017.011.03m.041,9.141c-.015.069-.01.079.011.031s.015-.059-.011-.031m.062-9.305q.041.04.03,0c-.006-.028-.016-.028-.03,0m.041-.144c.013,0,.021.021.021.062a.225.225,0,0,0,.1-.083c-.042.016-.073.016-.092,0s-.032-.007-.032.021m.041.762a.081.081,0,0,1,.062-.01c.013.008.021,0,.021-.03a.123.123,0,0,0-.083.04m.062-.184h.021c.028-.029.024-.042-.01-.042s-.044.007-.031.021Zm.165-.249c0-.027-.013-.04-.041-.04a.034.034,0,0,1,.01.04c-.007.014,0,.014.03,0m.083,0V39.1c.026.014.045.007.051-.021s0-.034-.03-.021c0,.014-.008.014-.021,0m.351-.144c.027-.015.034,0,.021.031s-.007.045.021.031c0-.028.006-.044.019-.051s.021-.025.021-.052c-.055,0-.082.014-.082.041m.164.351c.015.028.021.024.021-.01s-.006-.032-.021.01m.146.082c0-.026,0-.041.011-.041s.01-.014.01-.042h-.042c-.028.042-.02.068.021.082m0-.537c.041,0,.062-.013.062-.041-.015,0-.021-.006-.021-.02h-.041Zm0,.247v.021c.027.027.044.025.051-.01s0-.046-.03-.032c0,.015-.007.021-.021.021m.165,9.45a.121.121,0,0,1,.031-.062c.02-.028.01-.041-.031-.041a.083.083,0,0,1-.021.061c-.015.013-.007.029.021.042m-.021-9.408h.021v.041h-.021Zm.021.1a.266.266,0,0,1,.155.01c.062.021.079.06.052.114a.092.092,0,0,0,.032-.083.084.084,0,0,1,.03-.083c-.028.014-.055-.013-.083-.082a.145.145,0,0,1-.124-.021.116.116,0,0,1-.021.083.208.208,0,0,0-.041.062m.123,9.614c.014.028.024.028.032,0s0-.028-.032,0M144.8,39.1c.028-.013.049-.013.062,0s.029.007.041-.021c-.041-.042-.076-.034-.1.021m0,9.758c.042,0,.062-.013.062-.041-.041-.042-.062-.028-.062.041m.268-9.387c0,.057,0,.062.011.021s0-.048-.011-.021m.125-.185c.041.013.068.01.081-.01a.18.18,0,0,1,.062-.052c0-.027-.017-.03-.051-.01s-.046,0-.03-.072h-.062a.14.14,0,0,1,0,.145m.02.287c.055.015.086.011.093-.008a.1.1,0,0,1,.051-.053c-.013,0-.021-.005-.021-.021a.018.018,0,0,0-.02-.021c0,.029-.017.041-.051.041s-.052.021-.052.061m.082-.143c0-.042-.005-.062-.021-.062s-.006.035.021.062m.042-.289a.113.113,0,0,0,.082-.041c-.055-.013-.062-.031-.021-.052s.048-.044.021-.072c-.026,0-.041-.007-.041-.021a.286.286,0,0,0-.062.093.08.08,0,0,0,.02.093m0-.371h.042c.027-.028.02-.047-.021-.062a.08.08,0,0,1-.021.062m.021.682c.029.013.048.009.062-.011a.161.161,0,0,1,.062-.052.426.426,0,0,0-.124.063m.062-.579a.119.119,0,0,1,.062.1c.029,0,.042-.034.042-.1-.042-.028-.076-.028-.1,0m.062.639c.042-.013.068-.01.084.01a.126.126,0,0,0,.061.051c.026-.026.041-.046.041-.061-.027-.013-.062-.026-.1-.041a.059.059,0,0,0-.084.041m.084-.7c.026.027.036.027.03,0s-.018-.028-.03,0m.04.371c.028,0,.035.014.021.041s-.006.035.021.021a.35.35,0,0,1,.1-.1.146.146,0,0,0-.145.042m.083.454c-.029,0-.042.007-.042.02.027,0,.042-.007.042-.02m.1-.6c.014,0,.035-.034.062-.1a.236.236,0,0,1-.062-.041.086.086,0,0,0-.062-.021c-.026.041-.031.072-.009.093s.044.045.072.071m-.062.888a.118.118,0,0,0,.082-.041c-.055,0-.082.014-.082.041m.062-.144a.349.349,0,0,1,.083.01.084.084,0,0,0,.082-.031.135.135,0,0,1-.073-.021.694.694,0,0,0-.073-.042.131.131,0,0,0-.02.083m.083-.62a.072.072,0,0,0,.082-.082.072.072,0,0,0-.082.082m0,.764c.026,0,.04.007.04.021.028.015.046.01.053-.01s.023-.024.051-.01c-.015-.027-.011-.048.011-.062s.016-.027-.011-.042a.349.349,0,0,1-.083.031c-.028.007-.048.031-.061.072M146,39.1c.028.054.049.065.062.031s-.006-.044-.062-.031m.062,1.01c.013-.013.013-.034,0-.062-.014-.013-.035.008-.062.062.056.014.083.041.083.082a.186.186,0,0,1,.206.042c-.042-.055-.028-.1.041-.124-.041-.013-.048-.034-.02-.062s.02-.047-.021-.06a.212.212,0,0,1-.227.123m.166,8.747a.018.018,0,0,1,.019-.021c.029,0,.042,0,.042.01s.008.01.021.01c.013-.041-.007-.062-.063-.062.014.014.007.025-.019.031s-.029.018,0,.031m0-9.469c.026.015.044,0,.051-.041s0-.062-.032-.062a.178.178,0,0,0-.019.1m.144-.061h0m-.021,9.614c.013.027.021.027.021,0s-.008-.027-.021,0m.021-.062c.013,0,.021.006.021.021a.118.118,0,0,0,.081-.042c-.069-.027-.1-.021-.1.021m.062-9.037c-.029.028-.04.034-.04.021a.062.062,0,0,0,.04-.021m.1.722c.014-.028,0-.042-.03-.042s-.051.008-.051.021c.026,0,.041,0,.041.01s.014.01.041.01m.021-.392c.013.07.023.08.031.031s0-.057-.031-.031m.082.413a.1.1,0,0,0-.031-.072c-.021-.021-.039-.018-.052.01.027-.014.04,0,.04.031s.014.045.042.031m.021-.31c.013.028.021.024.021-.01s-.008-.031-.021.01m.1,1.424c.027.028.042.028.042,0s-.015-.028-.042,0m.1-.371h-.04a.034.034,0,0,1,.03.021c.006.014.01.006.01-.021m-.021.206c.028.013.042,0,.042-.032s-.015-.043-.042-.03Zm.021,2.207c.041-.042.044-.061.011-.061s-.039.019-.011.061m.083-1.608c.028-.015.03-.031.008-.053s-.036-.017-.05.01a.02.02,0,0,1,.021.021c0,.014.005.021.021.021m-.042.143.082.042a.069.069,0,0,0,0-.072.135.135,0,0,1-.021-.072c-.04-.013-.061.021-.061.1m.042,2.249a.118.118,0,0,0,.1-.062h-.062c-.013,0-.027.02-.041.062m.041,1.32v-.061c-.027.014-.041.028-.041.042s.014.02.041.02m-.021-4.064a.093.093,0,0,0,.073.052.075.075,0,0,0,.072-.01.066.066,0,0,1-.072-.062.194.194,0,0,0-.052-.1q.02.062,0,.072c-.013.007-.021.024-.021.052m.042.392c.041-.013.06,0,.052.031s0,.046.03.031.034-.031.021-.051a.068.068,0,0,1,0-.072.019.019,0,0,1-.021-.021q0-.02-.042,0c0,.028,0,.042-.01.042s-.017.013-.031.041m.124,1.032c-.013-.014-.028-.028-.041-.042s-.042-.013-.083,0c0,.028.02.049.062.061s.062.008.062-.019m-.02-2.538c-.014,0-.021.007-.021.022a.019.019,0,0,0,.021-.022m.062,3.61-.042-.041c-.013.028-.01.049.011.062s.031.008.031-.021m-.042-4.517c.014.028.022.028.022,0s-.008-.027-.022,0m.1.866h-.062c-.014.041,0,.063.031.063s.044-.022.031-.063m-.042,3.281a.164.164,0,0,0,.1-.032.394.394,0,0,1,.1-.052c-.07.029-.09,0-.062-.082.041,0,.062-.005.062-.02a.158.158,0,0,0-.175.02.132.132,0,0,0-.032.166m0,3.342c0,.055.007.09.021.1,0-.068.021-.1.062-.082a.4.4,0,0,0,.124.02c0-.027-.008-.041-.021-.041s-.02-.013-.02-.041a.169.169,0,0,1-.093.01c-.021-.008-.045,0-.073.031m.021-.784c.014-.027.028-.03.041-.01s.027.018.042-.01c0-.069-.015-.1-.042-.1a.067.067,0,0,1-.041.063c-.029.013-.029.034,0,.061m.021.558a.066.066,0,0,1,.02-.043c.014-.013.006-.026-.02-.04a.1.1,0,0,1-.021.052c-.014.021-.007.031.021.031m-.021-6.417c.014.028.021.025.021-.01s-.007-.031-.021.01m.041.5c-.027,0-.041.008-.041.021.028,0,.041-.007.041-.021m-.041,4.188c0,.013.014.023.041.031a.05.05,0,0,0,.062-.031c-.041,0-.059-.022-.051-.062s-.011-.063-.052-.063a.078.078,0,0,1,.011.063.141.141,0,0,0-.011.062m.062-5.179a.018.018,0,0,0-.021.021c0-.013,0-.018.011-.011s.01,0,.01-.01m.041,5.8c.027.027.027.023,0-.01s-.028-.032,0,.01m-.02-1.837a.056.056,0,0,0,.082.01.075.075,0,0,1,.083-.01c.028.068.054.1.083.1a.073.073,0,0,1,.083-.082c-.042-.07-.09-.1-.144-.083a1.47,1.47,0,0,0-.186.062m.02-2.806h.042c.014-.027.006-.044-.021-.051s-.035,0-.021.031q.02,0,0,.02m.062.187c.029-.028.024-.042-.011-.042s-.051.006-.051.02Zm.083,4.745c-.027,0-.048-.021-.061-.061s-.042-.042-.083,0a.088.088,0,0,1,.072.051c.021.034.045.038.072.01m-.083-.619c0-.027.011-.042.031-.042s.03-.013.03-.04a.093.093,0,0,0-.073.04c-.019.029-.016.042.011.042m0-4.271c.013.028.021.025.021-.01s-.008-.032-.021.01m.062.888a.116.116,0,0,0-.04-.083.1.1,0,0,1,.01.072c-.008.021,0,.025.03.01m-.04,2.269c.028.056.04.062.04.02s-.013-.047-.04-.02m.021.083c-.029.042-.021.055.02.042s.035-.028-.02-.042m.062-1.444a.14.14,0,0,1,.123-.031.4.4,0,0,1,.123.031c0-.055-.034-.076-.1-.061s-.117,0-.144-.042c.013.027.008.048-.011.061s-.018.029.011.042m0,2.146a.04.04,0,0,0,.061-.02c.014-.028.014-.04,0-.04-.013.026-.031.037-.052.029s-.023,0-.008.031m.061-2v-.062c-.042,0-.061.008-.061.021.026-.014.037-.006.03.019s0,.036.031.022m0-1.94a.033.033,0,0,0-.021-.031c-.014-.007-.021,0-.021.031.013-.014.021-.014.021,0s.007.014.021,0m.021,3.26c.027.04.041.044.041.01s-.014-.037-.041-.01m0,2.889c.027-.028.034-.021.021.021s-.008.061.021.061a.189.189,0,0,0,.021-.082c0-.028-.021-.048-.062-.062Zm.041-5.674.041-.042c-.014,0-.02-.006-.02-.021h-.042c0,.042.007.062.021.062m0,2.125c-.014.04,0,.059.041.052s.055,0,.042.031c-.042.041-.042.1,0,.164a.242.242,0,0,0-.1.228.373.373,0,0,1,.165.1.169.169,0,0,0,.041-.123c-.069,0-.1-.013-.1-.042a.112.112,0,0,0,.052-.042.111.111,0,0,1,.051-.041.761.761,0,0,1,.01-.134.532.532,0,0,0,.011-.113.1.1,0,0,1-.1-.083.018.018,0,0,0-.02-.021c0,.014-.028.021-.083.021m0,2.558c.041,0,.062-.007.062-.021-.041,0-.062.008-.062.021m.083-1.959c-.028,0-.042.006-.042.02a.063.063,0,0,0,.042-.02m-.042.267h.042a.038.038,0,0,0-.042-.041Zm0,.125a.032.032,0,0,1,.042-.009c.013.006.013,0,0-.032h-.042Zm0,.908h.145c.013-.041-.007-.065-.062-.073s-.082.018-.082.073m.042-2.022c.013,0,.02.022.02.062.028,0,.055-.027.083-.083-.028.014-.049.014-.062,0s-.027-.005-.04.021m.02,3.24c.028,0,.048-.024.062-.073s.006-.071-.021-.071a.169.169,0,0,0-.021.071.169.169,0,0,1-.02.073m.165-3.095c0-.042-.028-.062-.082-.062-.028.028-.028.052,0,.072a.056.056,0,0,0,.082-.01m0,1.052c0-.015-.013-.025-.04-.032a.05.05,0,0,0-.063.032.172.172,0,0,1,.063.021c.026.013.04.005.04-.021m0,.143c.014.056.007.083-.021.083a.065.065,0,0,0-.061.042c.028.028.075.028.143,0s.083-.068.043-.125Zm0-1.319c.014.04.021.044.021.009s-.008-.038-.021-.009m.681,5.2c0-.042-.007-.062-.021-.062-.04.041-.034.062.021.062m.185-.536c.014.029.02.023.02-.01s-.006-.032-.02.01" transform="translate(-79.758 -22.301)" fill="#fff"/>
      <path id="Path_29726" data-name="Path 29726" d="M180.528,34.665a1.345,1.345,0,0,1,.392.867,1.18,1.18,0,0,1-.074.64,3.261,3.261,0,0,1-.277.453.942.942,0,0,1-.742.288l-.29-.072a.75.75,0,0,1-.288-.174,1.191,1.191,0,0,1-.187-.362.482.482,0,0,1,.084-.464c.069-.1.123-.168.165-.217a1.438,1.438,0,0,1,.164-.155v-.021a.721.721,0,0,0-.113-.124l-.155-.123c-.013-.028-.007-.038.021-.031a.049.049,0,0,0,.062-.031c-.069-.014-.155-.028-.258-.041a.439.439,0,0,1-.259-.125h-.062a.313.313,0,0,1-.144.052,1.2,1.2,0,0,0-.207.052,2.69,2.69,0,0,0-.319.114.626.626,0,0,0-.3.3,1.862,1.862,0,0,0-.156.351,1.458,1.458,0,0,0-.051.413v.165q.061.041.371.289a3.249,3.249,0,0,1,.35.32,1.4,1.4,0,0,1,.248.382.676.676,0,0,1,.176.216c.048.09.1.19.153.3a3.106,3.106,0,0,1,.2.681,3.509,3.509,0,0,1,.072.578,2.756,2.756,0,0,1-.112.928,4.049,4.049,0,0,1-.321.764c-.11.15-.224.3-.34.443a3.467,3.467,0,0,1-.506.486c-.1.068-.2.14-.319.215a2.132,2.132,0,0,1-.32.176c-.1.042-.226.091-.393.146s-.3.1-.411.123a3.765,3.765,0,0,1-.712.123,5,5,0,0,1-.773-.02,5.105,5.105,0,0,1-.62-.093,2.8,2.8,0,0,1-.537-.155.135.135,0,0,1,.042-.114.647.647,0,0,0,.083-.071.122.122,0,0,0-.021-.072.138.138,0,0,1-.021-.073.16.16,0,0,1-.113.164c-.076.029-.1.077-.072.146-.137-.041-.306-.1-.5-.186a5.21,5.21,0,0,0-.507-.185.772.772,0,0,0-.7.185,1.155,1.155,0,0,0-.207.33.749.749,0,0,0-.061.454.988.988,0,0,0,.444.619,2.041,2.041,0,0,0,.732.247c.206.028.5.052.9.073s.766.025,1.124.01a5.134,5.134,0,0,1,.855.031c.281.034.492.059.63.072.192.028.379.049.558.063a.823.823,0,0,1,.454.165.117.117,0,0,0,.083.041.159.159,0,0,0,.113,0,.3.3,0,0,1,.114-.021h.061a4.345,4.345,0,0,1,.671.259,6.181,6.181,0,0,1,.608.34.124.124,0,0,1,.041.083l.02.021c0,.014.008.02.021.02.041,0,.062.014.062.041a.27.27,0,0,0,.113.124c.048.028.1.055.155.082a.066.066,0,0,1,.021.041.449.449,0,0,0,.062.1.743.743,0,0,1,.259.279,1.819,1.819,0,0,0,.216.32v.042l.021.04c0,.056-.011.09-.031.1s-.017.042.01.083c0,.041.014.062.041.062a.089.089,0,0,1,.073.051.411.411,0,0,0,.072.093.042.042,0,0,0,.01.031.088.088,0,0,1,.011.051,1.961,1.961,0,0,1,0,.372c-.016.11-.03.255-.043.432v.083a.175.175,0,0,1,.021.062.055.055,0,0,0,.022.04v.062a2.015,2.015,0,0,1-.343.9,5.977,5.977,0,0,1-.443.506,2.452,2.452,0,0,1-.434.351,4.745,4.745,0,0,1-.537.33,3.575,3.575,0,0,1-.6.237c-.206.061-.433.128-.681.2-.082.015-.189.035-.32.062s-.271.052-.422.072-.307.034-.465.042-.306.01-.444.01a.746.746,0,0,1-.185-.021c-.056-.013-.11-.028-.164-.042a4.2,4.2,0,0,0-.434.022c-.138.014-.275.02-.412.02a4.6,4.6,0,0,1-.609-.042c-.214-.026-.416-.062-.608-.1s-.364-.083-.517-.124a2.192,2.192,0,0,1-.309-.1,1.334,1.334,0,0,1-.309-.1c-.124-.054-.248-.116-.371-.185s-.244-.138-.361-.205a1.482,1.482,0,0,1-.259-.186,3.735,3.735,0,0,1-.432-.423,2.313,2.313,0,0,1-.329-.568,2.272,2.272,0,0,1-.2-.742,3.552,3.552,0,0,1,.031-.8,1.46,1.46,0,0,0,.062-.2,1.123,1.123,0,0,1,.061-.2,3.139,3.139,0,0,1,.4-.629,2.591,2.591,0,0,1,.671-.527c.068-.041.154-.089.257-.144a2.849,2.849,0,0,1,.32-.145v-.042a2.673,2.673,0,0,0-.309-.145,1.578,1.578,0,0,1-.351-.186,2.867,2.867,0,0,1-.6-.536,1.55,1.55,0,0,1-.371-.948,1.768,1.768,0,0,1,.145-.938,1.723,1.723,0,0,1,.35-.505,2.255,2.255,0,0,1,1.031-.62.121.121,0,0,1,.083-.042.118.118,0,0,0,.083-.042,1.724,1.724,0,0,1-.269-.443,1.912,1.912,0,0,1-.143-.4,2.717,2.717,0,0,1-.125-.681,3.013,3.013,0,0,1,.062-.762,1.792,1.792,0,0,1,.062-.259c.026-.09.055-.176.082-.258a2.089,2.089,0,0,1,.258-.506,4.905,4.905,0,0,1,.34-.423,3.122,3.122,0,0,1,.805-.66,3.288,3.288,0,0,1,1.011-.412,4.8,4.8,0,0,1,1.177-.145,5.472,5.472,0,0,1,.577.032,3.659,3.659,0,0,1,.639.133,1.8,1.8,0,0,1,.072-.526,4.992,4.992,0,0,1,.176-.485,1.554,1.554,0,0,1,.33-.454,1.381,1.381,0,0,1,.517-.33,1.306,1.306,0,0,1,.557-.186,2.786,2.786,0,0,1,.64-.041,2.349,2.349,0,0,1,.567.021c.145.028.312.068.5.124a1.433,1.433,0,0,1,.434.227,3.253,3.253,0,0,1,.392.329m-9.7,11.409a.025.025,0,0,1,.041,0v-.041c-.013,0-.02,0-.02-.011s-.013-.009-.042-.009c0,.042.007.062.021.062m.351,2.31a.186.186,0,0,1-.051-.031.086.086,0,0,0-.052-.009c-.028.04-.017.06.031.06s.072-.006.072-.021m.144-2.083a.054.054,0,0,0-.061-.062c0,.028.007.04.021.04a.059.059,0,0,1,.04.021m.268,2.7a.251.251,0,0,0-.051-.041c-.02-.013-.03,0-.03.041a.042.042,0,0,1,.061.012c.014.02.02.016.02-.012m.1-2.929c.028-.027.025-.045-.01-.052s-.052,0-.052.032a.038.038,0,0,1,.031.01.05.05,0,0,0,.031.01m4.084-.845c-.206-.013-.436-.022-.69-.022a6.053,6.053,0,0,0-.732.042l-.444.061a5.1,5.1,0,0,0-.547.1,5.478,5.478,0,0,0-.535.2,2.789,2.789,0,0,0-.454.236,1.406,1.406,0,0,0-.722,1.053,1.492,1.492,0,0,0,.031.495,1.307,1.307,0,0,0,.2.392,1.16,1.16,0,0,0,.413.412c.164.1.288.174.371.228a.843.843,0,0,0,.195.114,2.679,2.679,0,0,0,.454.145c.2.047.45.092.754.133a8.457,8.457,0,0,0,1.114.062,6.962,6.962,0,0,0,1.218-.093,4.887,4.887,0,0,0,.865-.226,3.492,3.492,0,0,0,.568-.269c.144-.089.25-.162.32-.217a2.5,2.5,0,0,0,.432-.351l.021-.041c0-.082.013-.131.041-.144V47.5a.256.256,0,0,1-.01-.114.649.649,0,0,0,.01-.134.144.144,0,0,0,.094.01.575.575,0,0,1,.112-.01l.021-.021a.959.959,0,0,0-.144-.123c-.013-.04-.008-.062.021-.062s.034-.015.02-.042a.064.064,0,0,0-.062-.042.066.066,0,0,1-.062-.041,1.093,1.093,0,0,0-.1-.454c.068-.013.111-.007.124.022a.136.136,0,0,0,.082.061.1.1,0,0,0,.031-.094.183.183,0,0,0-.051-.092.052.052,0,0,1-.083,0,.138.138,0,0,0-.1-.042.069.069,0,0,0-.01.062c.007.014,0,.021-.031.021a1.209,1.209,0,0,0-.35-.434,4.065,4.065,0,0,0-.413-.288q.04-.082.165-.042c.083.028.13.007.144-.061a.09.09,0,0,1-.062.02c-.055,0-.076-.028-.063-.082,0-.07.029-.083.082-.042s.09.028.1-.042a.068.068,0,0,0-.083-.052.148.148,0,0,1-.1-.011.118.118,0,0,0-.009.085c.007.027,0,.04-.031.04-.083-.027-.135-.018-.154.032a.259.259,0,0,1-.093.112,4.862,4.862,0,0,0-1.858-.412m-3.96-.579a.082.082,0,0,0,.083-.041c-.028,0-.041,0-.041-.011s-.007-.01-.021-.01,0,.021-.011.021-.01.014-.01.041m.062-4.208V40.5c.042.013.062.007.062-.021a.065.065,0,0,1,.042-.061.169.169,0,0,0-.1.02m.062.392c0,.069.007.079.021.031s.006-.058-.021-.031m.083.392c0-.068-.014-.1-.041-.1a.075.075,0,0,0-.042.073c0,.036.027.045.083.032m-.021,3.754a.045.045,0,0,1,.031.01c.006.007.024.01.051.01a.049.049,0,0,0-.041-.051c-.026-.007-.042,0-.042.031m.021-4.188c.028.027.045.023.052-.011a.06.06,0,0,0-.031-.073.127.127,0,0,0-.021.083m.516.99c0-.055-.013-.083-.041-.083,0,.07.013.1.041.083m-.041,2.949v.021h.041c.028-.027.02-.042-.02-.042,0,.015-.008.021-.021.021m.061.311a.418.418,0,0,0-.03.1.119.119,0,0,0,.03.1.4.4,0,0,1,.093-.166c.049-.054.06-.1.032-.145-.028.1-.069.132-.125.1m0-4.437c.029-.026.054-.03.073-.01s.032.01.032-.03c-.014.014-.039.014-.073,0s-.045,0-.032.04m.021,4.808c.028,0,.041-.007.041-.021-.027,0-.041.008-.041.021m.125-.682c.012-.04-.007-.061-.063-.061a.055.055,0,0,0,.063.061m.081.724v.04a.019.019,0,0,1,.021.021.136.136,0,0,0,.03-.052c.007-.021,0-.031-.03-.031a.02.02,0,0,1-.021.022m.042-5.075v.04c.027.014.045.007.052-.021s0-.041-.031-.041a.019.019,0,0,1-.021.021m.1-3.756c.04,0,.062-.017.062-.051a.133.133,0,0,1,.042-.094c-.042.014-.075.062-.1.145m0,8.294c.055,0,.083-.02.083-.062-.013,0-.043.022-.083.062m0,.1q.021.04.021,0t-.021,0m2.93-7.757a2.214,2.214,0,0,0-.474-.072c-.164-.007-.317-.01-.455-.01a.406.406,0,0,1-.1-.042c-.04.027-.093.059-.155.091a.148.148,0,0,1-.175-.008.349.349,0,0,1-.227.143,1.557,1.557,0,0,0-.288.1,2.3,2.3,0,0,0-.392.29,2.436,2.436,0,0,0-.33.351,1.526,1.526,0,0,0-.207.4c-.041.132-.075.258-.1.383a2.031,2.031,0,0,0,.33,1.465.6.6,0,0,1,.123.206l.083.04a.156.156,0,0,1,.063.062l.021.041c.026.029.044.038.051.031s.024,0,.05.011a.065.065,0,0,1,.022.052c0,.021.013.031.041.031a.448.448,0,0,1,.207.1,1.522,1.522,0,0,0,.527.207,2.434,2.434,0,0,0,.423.062.562.562,0,0,1,.154.021.681.681,0,0,0,.176.019h.04a.554.554,0,0,1,.237-.071.545.545,0,0,0,.238-.072h.061a.62.62,0,0,0,.2-.032.389.389,0,0,1,.2-.01h.021a.505.505,0,0,0,.237-.113,1.282,1.282,0,0,1,.258-.176c.014,0,.028-.01.041-.031a.156.156,0,0,1,.062-.051h.083a.063.063,0,0,0,.02-.042,1.125,1.125,0,0,1,.329-.35c.029,0,.043-.027.043-.083a1.456,1.456,0,0,1,.083-.257,1.958,1.958,0,0,0,.082-.259,2.11,2.11,0,0,0,.051-.413,2.152,2.152,0,0,0-.032-.475,1.527,1.527,0,0,0-.257-.629,2.015,2.015,0,0,0-.3-.361,2.554,2.554,0,0,0-.506-.321c-.185-.088-.368-.168-.547-.236m-2.847,7.757c.041,0,.062-.007.062-.021-.041-.041-.062-.034-.062.021m.35-4.229h.042c0-.042-.013-.048-.042-.022Zm.083.205a.127.127,0,0,1,.011.083.049.049,0,0,0,.031.061c.042-.014.065-.016.072-.01s.024.025.051.051a.452.452,0,0,1-.009-.164c.005-.041-.018-.075-.073-.1a.12.12,0,0,1-.042.053.137.137,0,0,0-.042.03m.083.578a.04.04,0,0,0,.062.021.041.041,0,0,0,.02-.062.121.121,0,0,0-.082.041M173.677,45a.161.161,0,0,1-.061-.02c-.027-.014-.04-.014-.04,0a.082.082,0,0,1,.051.031c.021.021.037.018.05-.01m-.019,4.5c.014-.028,0-.049-.031-.062s-.051-.007-.051.021c.026.042.054.055.082.042m-.021-8.046c0,.028.014.034.04.021s.049-.015.062,0c.014-.029,0-.049-.041-.062s-.062,0-.062.041m.062.247c.013.07.024.08.031.031s0-.058-.031-.031m.041,3.487a.038.038,0,0,1,.042.042.036.036,0,0,0,.041.04.133.133,0,0,0,.01-.092c-.007-.035-.031-.045-.072-.031,0,.027-.007.041-.021.041m.537-3.487a.233.233,0,0,0-.133,0,.3.3,0,0,1-.155,0c0,.029-.008.045-.021.053s-.021.023-.021.052a.209.209,0,0,0,.073.051c.02.008.023.031.01.073a.354.354,0,0,1,.37-.042l.042-.042c.013-.027.013-.047,0-.061a.078.078,0,0,1-.021-.062c-.069.028-.1.021-.1-.021a.084.084,0,0,0-.041-.083c.014.028.018.045.011.052a.041.041,0,0,0-.011.031m-.309-.144c.027,0,.042.007.042.021s.013.021.04.021a.046.046,0,0,1,.011-.031c.006-.007,0-.023-.011-.051a.057.057,0,0,1-.04.02.06.06,0,0,0-.042.021m.021,3.085c.013-.008.006-.017-.021-.031v.062a.031.031,0,0,1,.021-.031m.061-3.271c.043.028.076.028.1,0a.137.137,0,0,0,.042-.1c-.083.029-.131.063-.145.1m.043.784c.013.042.019.045.019.012s-.006-.039-.019-.012m.351-.143c.026.027.04.027.04,0s-.014-.027-.04,0m.04-.475v-.061a.032.032,0,0,1-.021.03c-.013.007-.006.017.021.031m.083.331c-.014.028-.011.037.009.03a.054.054,0,0,1,.053.01c0-.04-.008-.062-.022-.062,0,.042-.013.049-.04.021m.082-.228a.162.162,0,0,0,.1.021c0-.055-.02-.083-.061-.083-.014.014-.021.024-.021.031a.053.053,0,0,1-.02.031m.1.785c.07,0,.1-.028.1-.082-.068,0-.1.026-.1.082m.021-.207c.055.083.118.1.185.042a.288.288,0,0,0-.021-.124c0,.069-.02.092-.061.071a.083.083,0,0,0-.1.011m.062-5.839a.188.188,0,0,0,.123,0,.19.19,0,0,1,.124,0,.279.279,0,0,1,0-.144.476.476,0,0,0-.145.021.137.137,0,0,1-.123-.021c-.027.027-.031.052-.01.072a.1.1,0,0,1,.03.072M175,42.03l.061-.061a.05.05,0,0,1-.052-.031c-.006-.021-.03-.024-.072-.01,0,.082.021.117.062.1m.082.124c.013,0,.022,0,.022.012s.007.009.021.009c0-.041-.014-.054-.043-.041Zm.083-5.4c.027-.015.042-.015.042,0s.014.013.041,0a.049.049,0,0,0,.01-.052c-.007-.021,0-.039.031-.052-.055-.027-.1-.01-.134.052s-.03.079.01.052m.124-.227a.1.1,0,0,0,0-.093c-.014-.034-.041-.044-.082-.031-.029.082,0,.124.082.124m.206-.557v.082a.063.063,0,0,1,.052-.042c.02,0,.037-.013.051-.04-.028-.014-.045-.014-.051,0s-.025.014-.052,0m.063,13.409c0-.055-.021-.082-.063-.082a.174.174,0,0,1,.021.073c0,.02.014.023.042.01m.019-7.86c.028,0,.043,0,.043-.01s.013-.01.041-.01c.013-.041,0-.058-.051-.052s-.059.032-.032.073m.206-5.22c-.013,0-.026-.013-.04-.041s-.021-.027-.021,0a.056.056,0,0,0,.021.041.025.025,0,0,0,.04,0m.393,5.055a.69.69,0,0,0,.011.134.09.09,0,0,1-.053.092c-.07-.013-.131-.024-.186-.031a.217.217,0,0,0-.145.031.239.239,0,0,1,0,.2,1.061,1.061,0,0,0-.061.2.15.15,0,0,0,.165.021.187.187,0,0,0,.1-.124.129.129,0,0,1-.135-.083.119.119,0,0,1,.052-.145h.2a.515.515,0,0,1,.195.042.145.145,0,0,1-.072-.175,1.2,1.2,0,0,1,.052-.155c0,.027-.017.041-.052.041a.074.074,0,0,1-.071-.041M175.8,37.1c.028,0,.038-.007.031-.021a.035.035,0,0,1,.011-.041H175.8Zm.166.083a.074.074,0,0,0-.083-.083.052.052,0,0,0,.02.071c.028.021.049.026.063.012m.1,4.249c.014-.013.006-.041-.02-.082a.069.069,0,0,0-.021.052c0,.02.013.029.041.029m.083-.143c-.027,0-.041.007-.041.02.027,0,.041-.008.041-.02m.392,1.053c-.015-.029-.015-.046,0-.052s.021-.024.021-.051a.232.232,0,0,0-.165-.042.162.162,0,0,0,.144.146m-.061-5.964c.054,0,.075-.013.061-.042-.042,0-.061.014-.061.042m.143,4.868c.027,0,.041-.019.041-.061s-.014-.062-.041-.062a.134.134,0,0,0-.03.062.048.048,0,0,0,.03.061m.145-3.754c.055,0,.073-.022.051-.062a.176.176,0,0,0-.072-.083c.028.028.035.053.021.072a.066.066,0,0,0,0,.073m0,4.559c.028,0,.041,0,.041.011s.008,0,.021-.032c-.013-.014-.034-.006-.062.021m.083-.888c.013-.042,0-.061-.042-.061,0,.041.014.061.042.061m.021-4.538a.041.041,0,0,1,.03.01.041.041,0,0,0,.032.01.145.145,0,0,0,.021-.165c-.069,0-.1.008-.1.022.042.013.057.029.051.051a.562.562,0,0,1-.03.072m.2,5.445a.353.353,0,0,0-.184-.1.129.129,0,0,0,.184.1m.022-.8a.083.083,0,0,0,.021.063q.021.021,0,.062a.122.122,0,0,0,.093-.031.131.131,0,0,1,.093-.03c.041.041.076.055.1.041.042-.013.061-.054.061-.125-.04.014-.068.008-.082-.019a.141.141,0,0,0-.062-.063.182.182,0,0,1-.113.052.206.206,0,0,0-.114.051m.021.413a.283.283,0,0,1,.04.33h.082a.707.707,0,0,0,.043-.268c0-.111-.055-.13-.165-.062m.062-.743c0,.028.007.046.021.053a.031.031,0,0,1,.021.03c.054-.028.1-.03.124-.01s.061.016.1-.011a.092.092,0,0,0-.1-.1.3.3,0,0,0-.166.041m.1-3.733a.236.236,0,0,0,.123.083c.055-.069.052-.124-.01-.166s-.1-.013-.113.083m.1,7.592a.047.047,0,0,0,.051-.031.1.1,0,0,1,.052-.051.043.043,0,0,1-.031-.01.043.043,0,0,0-.03-.01.135.135,0,0,0-.042.1m.1-3.011a.178.178,0,0,1-.021-.072c0-.022-.013-.032-.04-.032-.028.028-.008.062.061.1m-.061-.166a.484.484,0,0,1,.1.062.212.212,0,0,1,.165-.205c0-.043-.028-.062-.083-.062,0,.069-.023.092-.072.072a.166.166,0,0,1-.093-.072.682.682,0,0,0-.021.205m.061-.887a.018.018,0,0,1,.02-.021c0-.041-.014-.048-.042-.02,0,.028.008.041.021.041m0,.289c.013.027.023.024.031-.01s0-.031-.031.01m.02-4.024.021.021c0-.042-.008-.054-.021-.042Zm.062,4.024c.028,0,.042,0,.042-.01s.008-.011.021-.011c0-.054.006-.088.021-.1-.042-.041-.077-.055-.1-.041a.455.455,0,0,0,.02.165m.062.33c0-.028.034-.042.1-.042a.062.062,0,0,1,.031.073c-.008.033,0,.05.03.05.027-.055.083-.068.166-.041a.065.065,0,0,0-.052-.072c-.035-.007-.052-.031-.052-.073a.277.277,0,0,1-.154,0,1.362,1.362,0,0,1-.135-.061c0,.111.021.166.062.166m-.021-1.671a.435.435,0,0,0,.072.061c.021.015.025.055.01.123.028.014.058.029.093.043a.165.165,0,0,0,.114,0,.729.729,0,0,1-.031-.072.253.253,0,0,1-.01-.072c-.042.014-.068.007-.081-.022a.164.164,0,0,1-.021-.082.49.49,0,0,0-.011-.094.13.13,0,0,0-.03-.072.123.123,0,0,1-.073.082c-.034.016-.044.049-.031.1m.021-2.848h.041c0-.027-.014-.027-.041,0m.1,3.962c.013-.015.006-.034-.021-.063,0,.041.007.063.021.063m.042-3.157c-.015,0-.021,0-.021-.011s-.007-.01-.021-.01c-.027.028-.025.042.01.042s.046-.007.032-.021m.04,1.093c-.013,0-.02,0-.02-.01s-.013-.011-.041-.011c-.015.029-.007.046.021.052s.04,0,.04-.031m-.061-4.187a.091.091,0,0,1,.052.051.047.047,0,0,0,.051.031c.055-.082.034-.124-.062-.124Zm.082,3.548H177.8c.014,0,.02.007.02.021s.007.007.021-.021m.021-.99c0-.028,0-.069.01-.125s0-.088-.031-.1c-.027.122-.021.2.021.226m0,.474c.013,0,.023-.013.032-.041s0-.041-.032-.041a.063.063,0,0,0-.021.041c0,.028.008.041.021.041m0-2.475.042.083c0-.056-.014-.083-.042-.083m.083,9.861c-.028,0-.039-.006-.031-.021s0-.021-.031-.021c-.014.028-.01.048.011.062s.037.007.051-.021m.021-7.118c0-.013-.029-.034-.083-.061,0,.027.007.041.021.041a.169.169,0,0,1,.062.02m-.062,7.324c.041,0,.062-.027.062-.082-.07,0-.091.028-.062.082m0-10.44c.041.029.058.026.052-.008s-.025-.032-.052.008m.02,2.477a.091.091,0,0,1,.052.062.049.049,0,0,0,.052.042.226.226,0,0,0-.061-.206c0,.028-.008.045-.021.051s-.021.023-.021.052m.021,3.2a.192.192,0,0,1,.051.072.2.2,0,0,0,.052.073c0-.014.021-.021.062-.021a.286.286,0,0,1,.112-.248.3.3,0,0,0,.134-.185q-.041.041-.072.01a.283.283,0,0,1-.051-.072.362.362,0,0,1-.289.371m.021,4.559a.338.338,0,0,0,.1.041c-.014-.041-.01-.068.011-.082a.072.072,0,0,0,.03-.062c-.029-.026-.052-.051-.072-.071s-.011-.045.031-.073a.172.172,0,0,0-.1-.02.057.057,0,0,0-.01.062.125.125,0,0,1-.011.082h.124c.013.083-.021.124-.1.124m0-10.006a.048.048,0,0,0,.051-.031c.007-.021,0-.037-.031-.051a.039.039,0,0,1-.011.031.083.083,0,0,0-.01.052m.061,6.149h.062c-.014-.028-.014-.046,0-.051s.014-.025,0-.053a.071.071,0,0,0-.062.032.068.068,0,0,0,0,.072m.042.124c0,.069.007.078.021.031s.007-.059-.021-.031m.021-3.342a.147.147,0,0,0,.1,0v-.1c-.041-.028-.073-.028-.094,0a.111.111,0,0,0-.01.1m.227-.248a.187.187,0,0,0-.083-.135,1.029,1.029,0,0,1-.124-.072c.027.055.051.1.072.135a.191.191,0,0,0,.134.073m-.1-3.137c.027.028.053.026.073-.01a.183.183,0,0,0,.031-.092h-.083c.013.028.013.044,0,.052s-.021.025-.021.051m.083.124a.07.07,0,0,0-.03-.062c-.021-.013-.031-.007-.031.02a.019.019,0,0,1,.02.022c0,.013.014.02.042.02m-.042,3.4c.014.028.024.028.031,0s0-.028-.031,0m.062,10.645a.1.1,0,0,0-.011.114.526.526,0,0,0,.072.093c.013-.027.044-.038.093-.031s.072,0,.072-.031a.08.08,0,0,0-.061.02.048.048,0,0,0-.032-.051c-.021-.007-.031-.023-.031-.052a.116.116,0,0,0,.083-.04c.026-.028.021-.048-.02-.062,0,.027-.056.041-.166.041m.04-3.713V44.9H178.3a.054.054,0,0,0,.061.061m0-6.251a.018.018,0,0,0-.021.021h.042c0-.014-.007-.021-.021-.021m.042,1.114a.02.02,0,0,0-.021.021h.041a.019.019,0,0,0-.02-.021m.042,4.952c-.042,0-.062.008-.062.021.041.042.062.035.062-.021m-.021-5.9c.029.026.039.026.031,0s-.018-.028-.031,0m.042.721c-.029,0-.039-.01-.032-.031s0-.03-.01-.03a.277.277,0,0,0,.01.061c.008.027.019.027.032,0m.1-.846a.154.154,0,0,0,.114.042.153.153,0,0,1,.113.042.135.135,0,0,1,0,.144.089.089,0,0,0,.021.124.51.51,0,0,0,.051-.177,1.518,1.518,0,0,0,.01-.2.128.128,0,0,0-.144-.041.468.468,0,0,0-.165.062m.082,9.9c.056.029.065.063.032.1a.309.309,0,0,1-.094.082.081.081,0,0,0,.113-.01.139.139,0,0,0,.052-.094c.055.029.1.021.124-.02s.022-.068-.021-.083c-.013.07-.043.086-.093.052s-.086-.046-.114-.033m0-9.3c.027,0,.043,0,.043.01s.006.009.019.009c0-.026,0-.04.01-.04s0-.008-.03-.021Zm.185,5.776c-.013.028-.013.041,0,.041s.021.014.021.041c-.041.07-.089.076-.144.022,0,.055.021.072.062.051a.245.245,0,0,1,.1-.031c0-.069.015-.111.043-.125a.058.058,0,0,1-.053-.021c-.007-.013-.018-.006-.031.021m-.04.6c.013.068.032.137.052.205a.3.3,0,0,1-.011.206.088.088,0,0,0,.064-.093.086.086,0,0,1,.061-.092c-.111-.056-.13-.121-.061-.2a.125.125,0,0,1,.205-.01.055.055,0,0,0-.062-.062c-.041,0-.055-.034-.041-.1-.056.026-.091.02-.1-.022s-.034-.047-.064-.02c.057.014.069.045.042.093a.238.238,0,0,1-.082.094m0,2.454c.028-.014.04-.014.04,0s.014.021.042.021a.1.1,0,0,0,.022-.1c-.043,0-.076.027-.1.082m.145-3.032a.107.107,0,0,1,.053.02c.019.014.036.007.05-.02-.014,0-.02-.029-.02-.083-.027,0-.055.029-.083.083M179,46.3a.336.336,0,0,1,.041.134.574.574,0,0,1-.02.134.069.069,0,0,0,.092.01c.035-.021.067-.038.093-.052a.141.141,0,0,1-.082-.134.391.391,0,0,1,.041-.175.134.134,0,0,1-.082-.03A.056.056,0,0,0,179,46.2a.1.1,0,0,1,.052.061c.006.029-.011.042-.052.042m.021,1.691a.041.041,0,0,1,.031.011c.006.006.023,0,.051-.011a.113.113,0,0,0-.042-.082c0,.026-.006.04-.02.04s-.02.014-.02.042m.164-.371c-.068-.014-.091-.01-.072.01s.045.017.072-.01m.021-.289c-.013.069-.01.078.01.031s.018-.059-.01-.031m.228-1.011a.116.116,0,0,0,.041-.082c-.055.014-.092.01-.113-.011a.131.131,0,0,0-.093-.031.264.264,0,0,0,.166.124m-.166.269a.1.1,0,0,0,.053.091c.033.021.037.045.01.073.095-.027.143-.075.143-.143-.055.013-.086,0-.092-.042s-.039-.055-.094-.042c0,.042-.008.062-.021.062m.269.887c0,.068.027.085.082.051s.1-.039.125-.011a.061.061,0,0,1,0-.071c.012-.021.006-.031-.021-.031a.218.218,0,0,1-.186.062m.1-1.424H179.6l-.02.02c.041,0,.062-.007.062-.02m.04-10.131a.193.193,0,0,1,.208-.143c-.014-.07-.069-.1-.165-.1a.5.5,0,0,1-.062.122.09.09,0,0,0,.019.124m.352.185a.081.081,0,0,0-.073-.01.136.136,0,0,1-.092-.009c-.015.04.011.062.072.062s.093-.014.093-.043m-.062-.824c0,.013.014.034.041.061.028-.027.042-.048.042-.061-.027,0-.039-.007-.032-.021s0-.014-.03,0Zm.062.928c-.028.028-.028.041,0,.041s.028-.013,0-.041m.021-1.362a.085.085,0,0,0,.062-.02c-.041,0-.062.006-.062.02m.392,1.155c.028,0,.039.016.031.042a.264.264,0,0,0-.01.061q.082,0,.125-.123c-.055-.054-.1-.049-.145.02m.248-.267c-.015.013-.021.013-.021,0a.018.018,0,0,0-.021-.021c-.042.027-.044.055-.009.082s.051.008.051-.061" transform="translate(-98.711 -19.719)" fill="#fff"/>
      <path id="Path_29727" data-name="Path 29727" d="M101.607,19.155V15.665h-.72v-.654h1.574v.569a1.516,1.516,0,0,1,1.224-.635,1.459,1.459,0,0,1,1.451.91,1.585,1.585,0,0,1,1.422-.91c1.015,0,1.659.664,1.659,1.991v2.219h.72v.655h-1.574V17.126c0-1.024-.361-1.479-1.005-1.479-.56,0-.844.55-1.024,1.081a1.65,1.65,0,0,1,.009.208v2.219h.711v.655H104.49V17.126c0-1.024-.36-1.479-1.005-1.479-.541,0-.873.569-1.024,1.119v2.389h.721v.655h-2.294v-.655Z" transform="translate(-58.586 -8.679)" fill="#fff"/>
      <path id="Path_29728" data-name="Path 29728" d="M123.694,14.967a2.051,2.051,0,0,1,1.583.645v-.588h.853v4.143h.73v.654h-1.584v-.588a2.06,2.06,0,0,1-1.583.635,2.2,2.2,0,0,1-2.143-2.465,2.181,2.181,0,0,1,2.143-2.437m-1.261,2.456a1.542,1.542,0,0,0,1.489,1.707,1.378,1.378,0,0,0,1.356-1.052v-1.3a1.378,1.378,0,0,0-1.356-1.052,1.533,1.533,0,0,0-1.489,1.7" transform="translate(-70.585 -8.691)" fill="#fff"/>
      <path id="Path_29729" data-name="Path 29729" d="M137.87,12.459a2.042,2.042,0,0,1,1.593.683V11.293h-.74v-.645h1.593v6.011h.721v.654h-1.574v-.626a2.13,2.13,0,0,1-1.593.673,2.2,2.2,0,0,1-2.143-2.465,2.181,2.181,0,0,1,2.143-2.437m-1.261,2.456a1.542,1.542,0,0,0,1.489,1.707,1.361,1.361,0,0,0,1.365-1.081V14.289a1.39,1.39,0,0,0-1.365-1.071,1.533,1.533,0,0,0-1.489,1.7" transform="translate(-78.817 -6.184)" fill="#fff"/>
      <path id="Path_29730" data-name="Path 29730" d="M152.2,14.967a2.12,2.12,0,0,1,2.238,2.333c0,.095-.019.426-.019.531h-3.641a1.535,1.535,0,0,0,1.6,1.3,2.108,2.108,0,0,0,1.612-.768l.218.692a2.559,2.559,0,0,1-1.991.816,2.274,2.274,0,0,1-2.361-2.465,2.27,2.27,0,0,1,2.342-2.437m1.508,2.2a1.42,1.42,0,0,0-1.479-1.5,1.5,1.5,0,0,0-1.489,1.5Z" transform="translate(-87.024 -8.691)" fill="#fff"/>
      <path id="Path_29731" data-name="Path 29731" d="M170.38,10.648v2.475a2.143,2.143,0,0,1,1.593-.664,2.174,2.174,0,0,1,2.133,2.437,2.189,2.189,0,0,1-2.133,2.465,2.131,2.131,0,0,1-1.593-.673v.626h-1.574v-.655h.72V11.293h-.72v-.645Zm0,4.893a1.359,1.359,0,0,0,1.366,1.081,1.547,1.547,0,0,0,1.489-1.707,1.539,1.539,0,0,0-1.489-1.7,1.405,1.405,0,0,0-1.366,1.072Z" transform="translate(-98.027 -6.184)" fill="#fff"/>
      <path id="Path_29732" data-name="Path 29732" d="M182.777,15.757V15.1h2.333v.654h-.664l1.223,3.442,1.252-3.442h-.664V15.1h2.323v.654h-.8l-1.82,4.76a1.282,1.282,0,0,1-1.337,1.015,2.639,2.639,0,0,1-.92-.171l.161-.673a1.89,1.89,0,0,0,.74.161.7.7,0,0,0,.626-.465l.18-.484h-.266l-1.574-4.143Z" transform="translate(-106.139 -8.771)" fill="#fff"/>
      <path id="Path_29733" data-name="Path 29733" d="M77.216,34.318H17.159A17.159,17.159,0,0,1,17.159,0H77.216a17.159,17.159,0,0,1,0,34.318M17.159.839a16.32,16.32,0,0,0,0,32.64H77.216a16.32,16.32,0,0,0,0-32.64Z" fill="#fff"/>
      <path id="Path_29734" data-name="Path 29734" d="M36.409,34.318H17.159A17.159,17.159,0,0,1,17.159,0h19.25ZM17.159.839a16.32,16.32,0,0,0,0,32.64H35.57V.839Z" fill="#fff"/>
    </g>
    <path id="Path_29735" data-name="Path 29735" d="M31.172,22.731l.083-.133a6.478,6.478,0,0,1,2.316-2.244,5.231,5.231,0,0,1,2.036-.658,5.382,5.382,0,0,1,4.186,1.245,5.173,5.173,0,0,1,1.758,3.05,6.041,6.041,0,0,1,.1,1.232A12.078,12.078,0,0,1,41.5,27.1a7.7,7.7,0,0,1-1.3,3.192,13.5,13.5,0,0,1-1.622,1.869c-.743.73-1.527,1.413-2.313,2.094-1.419,1.23-2.841,2.457-4.217,3.735-.261.242-.52.486-.779.73l-.1.088c-.026-.021-.051-.037-.073-.057-1.655-1.575-3.381-3.069-5.107-4.564-.824-.713-1.645-1.431-2.415-2.2A12.2,12.2,0,0,1,22.009,30.1a7.613,7.613,0,0,1-1.139-2.855,10.953,10.953,0,0,1-.174-2.409,5.283,5.283,0,0,1,4.037-5.011,5.527,5.527,0,0,1,4.665.936A6.664,6.664,0,0,1,31.086,22.6c.024.039.05.076.086.132" transform="translate(-12.013 -11.413)" fill="#a8ca9a"/>
  </g>
</svg>
