<svg xmlns="http://www.w3.org/2000/svg" width="127" height="127" viewBox="0 0 127 127">
  <g id="what_icon_1" transform="translate(-181 -3420)">
    <circle id="Ellipse_48" data-name="Ellipse 48" cx="63.5" cy="63.5" r="63.5" transform="translate(181 3420)" fill="#3f3075"/>
    <g id="information" transform="translate(208.404 3447.404)">
      <path id="Path_46240" data-name="Path 46240" d="M211.51,225.74H210.1V207.41a1.41,1.41,0,0,0-1.41-1.41H197.41a1.41,1.41,0,0,0-1.41,1.41v5.64a1.41,1.41,0,0,0,1.41,1.41h1.41v11.28h-1.41a1.41,1.41,0,0,0-1.41,1.41v5.64a1.41,1.41,0,0,0,1.41,1.41h14.1a1.41,1.41,0,0,0,1.41-1.41v-5.64A1.41,1.41,0,0,0,211.51,225.74Zm-1.41,5.64H198.82v-2.82h1.41a1.41,1.41,0,0,0,1.41-1.41v-14.1a1.41,1.41,0,0,0-1.41-1.41h-1.41v-2.82h8.46v18.33a1.41,1.41,0,0,0,1.41,1.41h1.41Zm0,0" transform="translate(-168.365 -176.954)" fill="#a8ca9a"/>
      <path id="Path_46241" data-name="Path 46241" d="M221.64,117.28a5.64,5.64,0,1,0-5.64-5.64A5.647,5.647,0,0,0,221.64,117.28Zm0-8.46a2.82,2.82,0,1,1-2.82,2.82A2.823,2.823,0,0,1,221.64,108.82Zm0,0" transform="translate(-185.545 -91.054)" fill="#a8ca9a"/>
      <path id="Path_46242" data-name="Path 46242" d="M36.1,0C16.641,0,0,16.61,0,36.1A38.449,38.449,0,0,0,5.123,55.185L.072,70.336a1.41,1.41,0,0,0,1.784,1.783l15.151-5.051A38.439,38.439,0,0,0,36.1,72.191c19.459,0,36.1-16.612,36.1-36.1C72.191,16.636,55.58,0,36.1,0Zm0,69.371a35.267,35.267,0,0,1-18.155-5.04,1.409,1.409,0,0,0-1.2-.147l-13.1,4.367,4.367-13.1a1.408,1.408,0,0,0-.147-1.2A35.265,35.265,0,0,1,2.82,36.1C2.82,18.058,18.058,2.82,36.1,2.82S69.371,18.058,69.371,36.1,54.133,69.371,36.1,69.371Zm0,0" fill="#a8ca9a"/>
    </g>
  </g>
</svg>
